G04 EAGLE Gerber RS-274X export*
G75*
%MOMM*%
%FSLAX34Y34*%
%LPD*%
%INTop Copper*%
%IPPOS*%
%AMOC8*
5,1,8,0,0,1.08239X$1,22.5*%
G01*
G04 Define Apertures*
%ADD10C,1.879600*%
%ADD11R,1.800000X1.600000*%
%ADD12R,0.970200X0.920900*%
%ADD13R,1.100000X1.000000*%
%ADD14R,1.164600X1.815300*%
%ADD15R,0.611800X0.911800*%
%ADD16R,1.397000X1.397000*%
%ADD17R,2.392000X1.565300*%
%ADD18R,1.350000X0.450000*%
%ADD19R,1.550000X1.500000*%
%ADD20C,1.408000*%
%ADD21C,1.800000*%
%ADD22C,1.524000*%
%ADD23P,1.42962X8X22.5*%
%ADD24R,1.000000X1.100000*%
%ADD25R,1.000000X0.500000*%
%ADD26R,0.500000X0.800000*%
%ADD27R,0.900000X1.500000*%
%ADD28R,1.500000X0.900000*%
%ADD29R,0.900000X0.900000*%
%ADD30C,0.708000*%
%ADD31C,0.139500*%
%ADD32C,0.196500*%
%ADD33C,0.406400*%
%ADD34C,0.756400*%
%ADD35C,1.016000*%
%ADD36C,0.508000*%
%ADD37C,0.812800*%
G36*
X114343Y11083D02*
X115010Y11540D01*
X115446Y12222D01*
X115582Y13019D01*
X115460Y13649D01*
X112903Y20675D01*
X112903Y30125D01*
X116135Y39005D01*
X122210Y46244D01*
X130393Y50969D01*
X139700Y52610D01*
X149007Y50969D01*
X157190Y46244D01*
X163265Y39005D01*
X166497Y30125D01*
X166497Y20675D01*
X163940Y13649D01*
X163820Y12849D01*
X164022Y12066D01*
X164513Y11423D01*
X165215Y11023D01*
X165849Y10922D01*
X270986Y10922D01*
X271779Y11083D01*
X272446Y11540D01*
X272882Y12222D01*
X273017Y13019D01*
X272831Y13806D01*
X272423Y14391D01*
X270141Y16673D01*
X268478Y20687D01*
X268478Y25033D01*
X270141Y29047D01*
X273213Y32119D01*
X277227Y33782D01*
X281573Y33782D01*
X285587Y32119D01*
X288659Y29047D01*
X289969Y25886D01*
X290421Y25215D01*
X291098Y24774D01*
X291895Y24632D01*
X292683Y24812D01*
X293339Y25285D01*
X293758Y25976D01*
X293878Y26663D01*
X293878Y27573D01*
X295541Y31587D01*
X298613Y34659D01*
X302627Y36322D01*
X306973Y36322D01*
X310987Y34659D01*
X314059Y31587D01*
X315722Y27573D01*
X315722Y26663D01*
X315883Y25871D01*
X316340Y25204D01*
X317022Y24768D01*
X317819Y24632D01*
X318606Y24818D01*
X319258Y25297D01*
X319631Y25886D01*
X320941Y29047D01*
X324013Y32119D01*
X328027Y33782D01*
X332373Y33782D01*
X336387Y32119D01*
X339459Y29047D01*
X340769Y25886D01*
X341221Y25215D01*
X341898Y24774D01*
X342695Y24632D01*
X343483Y24812D01*
X344139Y25285D01*
X344558Y25976D01*
X344678Y26663D01*
X344678Y27573D01*
X346341Y31587D01*
X349413Y34659D01*
X353427Y36322D01*
X357773Y36322D01*
X361787Y34659D01*
X364859Y31587D01*
X366522Y27573D01*
X366522Y26663D01*
X366683Y25871D01*
X367140Y25204D01*
X367822Y24768D01*
X368619Y24632D01*
X369406Y24818D01*
X370058Y25297D01*
X370431Y25886D01*
X371741Y29047D01*
X373801Y31107D01*
X374247Y31781D01*
X374396Y32544D01*
X374396Y40464D01*
X374235Y41257D01*
X373778Y41924D01*
X373097Y42359D01*
X372364Y42496D01*
X255586Y42496D01*
X253159Y43501D01*
X236301Y60359D01*
X235296Y62786D01*
X235296Y65211D01*
X235135Y66003D01*
X234701Y66648D01*
X234148Y67200D01*
X232756Y70561D01*
X232756Y89439D01*
X234148Y92800D01*
X236720Y95372D01*
X240081Y96764D01*
X243719Y96764D01*
X247080Y95372D01*
X249652Y92800D01*
X251044Y89439D01*
X251044Y70561D01*
X249728Y67385D01*
X249574Y66591D01*
X249741Y65800D01*
X250169Y65171D01*
X259040Y56299D01*
X259715Y55853D01*
X260477Y55704D01*
X377423Y55704D01*
X378215Y55865D01*
X378860Y56299D01*
X402161Y79600D01*
X402607Y80275D01*
X402756Y81037D01*
X402756Y89439D01*
X404148Y92800D01*
X404701Y93352D01*
X405147Y94027D01*
X405296Y94789D01*
X405296Y127523D01*
X405135Y128315D01*
X404701Y128960D01*
X392401Y141259D01*
X391396Y143686D01*
X391396Y298314D01*
X392401Y300741D01*
X403259Y311599D01*
X405686Y312604D01*
X411314Y312604D01*
X413741Y311599D01*
X415599Y309741D01*
X416604Y307314D01*
X416604Y304686D01*
X415599Y302259D01*
X413741Y300401D01*
X411314Y299396D01*
X410577Y299396D01*
X409785Y299235D01*
X409140Y298801D01*
X405199Y294860D01*
X404753Y294185D01*
X404604Y293423D01*
X404604Y148577D01*
X404765Y147785D01*
X405199Y147140D01*
X417499Y134841D01*
X418504Y132414D01*
X418504Y94789D01*
X418665Y93997D01*
X419099Y93352D01*
X419652Y92800D01*
X421044Y89439D01*
X421044Y70561D01*
X419652Y67200D01*
X417080Y64628D01*
X413719Y63236D01*
X410081Y63236D01*
X407372Y64358D01*
X406578Y64513D01*
X405787Y64346D01*
X405157Y63918D01*
X388199Y46960D01*
X387753Y46285D01*
X387604Y45523D01*
X387604Y32544D01*
X387765Y31751D01*
X388199Y31107D01*
X390259Y29047D01*
X390747Y27870D01*
X391199Y27199D01*
X391877Y26758D01*
X392673Y26616D01*
X393461Y26796D01*
X394117Y27269D01*
X394501Y27870D01*
X396279Y32162D01*
X399638Y35521D01*
X404025Y37338D01*
X405638Y37338D01*
X405638Y24638D01*
X407162Y24638D01*
X407162Y37338D01*
X408775Y37338D01*
X413162Y35521D01*
X416521Y32162D01*
X417749Y29197D01*
X418201Y28527D01*
X418878Y28085D01*
X419675Y27943D01*
X420463Y28123D01*
X421119Y28596D01*
X421503Y29197D01*
X421680Y29622D01*
X425038Y32981D01*
X429425Y34798D01*
X431038Y34798D01*
X431038Y22098D01*
X432562Y22098D01*
X432562Y34798D01*
X434175Y34798D01*
X438562Y32981D01*
X441921Y29622D01*
X442647Y27870D01*
X443098Y27199D01*
X443776Y26758D01*
X444572Y26616D01*
X445361Y26796D01*
X446017Y27269D01*
X446401Y27870D01*
X447941Y31587D01*
X451013Y34659D01*
X455027Y36322D01*
X459373Y36322D01*
X463387Y34659D01*
X466459Y31587D01*
X468122Y27573D01*
X468122Y23227D01*
X466459Y19213D01*
X463387Y16141D01*
X460226Y14831D01*
X459555Y14379D01*
X459114Y13702D01*
X458972Y12905D01*
X459152Y12117D01*
X459625Y11461D01*
X460316Y11042D01*
X461003Y10922D01*
X499586Y10922D01*
X500379Y11083D01*
X501046Y11540D01*
X501482Y12222D01*
X501617Y13019D01*
X501431Y13806D01*
X501023Y14391D01*
X498741Y16673D01*
X497078Y20687D01*
X497078Y25033D01*
X498741Y29047D01*
X501813Y32119D01*
X505827Y33782D01*
X510173Y33782D01*
X514187Y32119D01*
X517259Y29047D01*
X518569Y25886D01*
X519021Y25215D01*
X519698Y24774D01*
X520495Y24632D01*
X521283Y24812D01*
X521939Y25285D01*
X522358Y25976D01*
X522478Y26663D01*
X522478Y27573D01*
X524141Y31587D01*
X526376Y33822D01*
X526822Y34496D01*
X526971Y35291D01*
X526797Y36081D01*
X526376Y36695D01*
X497298Y65773D01*
X496624Y66220D01*
X495829Y66368D01*
X495039Y66194D01*
X494424Y65773D01*
X493280Y64628D01*
X489919Y63236D01*
X486281Y63236D01*
X482920Y64628D01*
X480348Y67200D01*
X478956Y70561D01*
X478956Y89439D01*
X480348Y92800D01*
X482920Y95372D01*
X486281Y96764D01*
X489919Y96764D01*
X493280Y95372D01*
X495852Y92800D01*
X497244Y89439D01*
X497244Y76727D01*
X497405Y75934D01*
X497839Y75290D01*
X537394Y35735D01*
X538053Y35294D01*
X539587Y34659D01*
X542659Y31587D01*
X544322Y27573D01*
X544322Y26663D01*
X544483Y25871D01*
X544940Y25204D01*
X545622Y24768D01*
X546419Y24632D01*
X547206Y24818D01*
X547858Y25297D01*
X548231Y25886D01*
X549541Y29047D01*
X552613Y32119D01*
X556627Y33782D01*
X560973Y33782D01*
X564987Y32119D01*
X568059Y29047D01*
X569369Y25886D01*
X569821Y25215D01*
X570498Y24774D01*
X571295Y24632D01*
X572083Y24812D01*
X572739Y25285D01*
X573158Y25976D01*
X573278Y26663D01*
X573278Y27573D01*
X574941Y31587D01*
X578013Y34659D01*
X582027Y36322D01*
X586373Y36322D01*
X590387Y34659D01*
X593459Y31587D01*
X595122Y27573D01*
X595122Y26663D01*
X595283Y25871D01*
X595740Y25204D01*
X596422Y24768D01*
X597219Y24632D01*
X598006Y24818D01*
X598658Y25297D01*
X599031Y25886D01*
X600341Y29047D01*
X603413Y32119D01*
X607427Y33782D01*
X611773Y33782D01*
X615787Y32119D01*
X618859Y29047D01*
X620169Y25886D01*
X620621Y25215D01*
X621298Y24774D01*
X622095Y24632D01*
X622883Y24812D01*
X623539Y25285D01*
X623958Y25976D01*
X624078Y26663D01*
X624078Y27573D01*
X625741Y31587D01*
X628813Y34659D01*
X632827Y36322D01*
X637173Y36322D01*
X641187Y34659D01*
X644259Y31587D01*
X645973Y27450D01*
X646425Y26780D01*
X647102Y26338D01*
X647899Y26196D01*
X648687Y26376D01*
X649343Y26849D01*
X649727Y27450D01*
X650580Y29508D01*
X650589Y29530D01*
X651393Y31539D01*
X652922Y33068D01*
X652939Y33085D01*
X665673Y46127D01*
X666111Y46807D01*
X666250Y47603D01*
X666067Y48391D01*
X665591Y49045D01*
X664898Y49462D01*
X663866Y49548D01*
X660700Y48990D01*
X651393Y50631D01*
X643210Y55356D01*
X637135Y62595D01*
X633903Y71475D01*
X633903Y80925D01*
X637135Y89805D01*
X643210Y97044D01*
X651393Y101769D01*
X660700Y103410D01*
X670007Y101769D01*
X671530Y100890D01*
X672297Y100633D01*
X673103Y100695D01*
X673821Y101068D01*
X674337Y101690D01*
X674578Y102650D01*
X674578Y329150D01*
X674417Y329943D01*
X673960Y330610D01*
X673279Y331046D01*
X672481Y331181D01*
X671530Y330910D01*
X670007Y330031D01*
X660700Y328390D01*
X651393Y330031D01*
X643658Y334497D01*
X642891Y334754D01*
X642153Y334696D01*
X642240Y335265D01*
X642042Y336049D01*
X641767Y336474D01*
X637135Y341995D01*
X633903Y350875D01*
X633903Y360325D01*
X637135Y369205D01*
X643210Y376444D01*
X651393Y381169D01*
X660700Y382810D01*
X660870Y382780D01*
X661679Y382801D01*
X662415Y383136D01*
X662963Y383731D01*
X663235Y384493D01*
X663188Y385300D01*
X662677Y386201D01*
X652939Y396175D01*
X652922Y396192D01*
X652593Y396521D01*
X651919Y396968D01*
X651124Y397116D01*
X650334Y396942D01*
X649674Y396475D01*
X649249Y395786D01*
X649124Y395084D01*
X649124Y386469D01*
X648231Y385576D01*
X641969Y385576D01*
X641076Y386469D01*
X641076Y394644D01*
X640915Y395437D01*
X640458Y396104D01*
X639777Y396539D01*
X638979Y396675D01*
X638266Y396521D01*
X637466Y396190D01*
X631734Y396190D01*
X630934Y396521D01*
X630140Y396676D01*
X629349Y396509D01*
X628685Y396046D01*
X628255Y395361D01*
X628124Y394644D01*
X628124Y386469D01*
X627231Y385576D01*
X620969Y385576D01*
X620076Y386469D01*
X620076Y396028D01*
X619915Y396821D01*
X619458Y397488D01*
X618777Y397923D01*
X618044Y398060D01*
X616862Y398060D01*
X616862Y408140D01*
X618158Y408140D01*
X618951Y408301D01*
X619618Y408758D01*
X620053Y409440D01*
X620190Y410172D01*
X620190Y413466D01*
X622384Y418763D01*
X626437Y422816D01*
X628626Y423723D01*
X629296Y424175D01*
X629738Y424852D01*
X629880Y425649D01*
X629700Y426437D01*
X629227Y427093D01*
X628626Y427477D01*
X626437Y428384D01*
X625175Y429646D01*
X624501Y430093D01*
X623706Y430241D01*
X622916Y430067D01*
X622301Y429646D01*
X621731Y429076D01*
X610404Y429076D01*
X609922Y429395D01*
X609159Y429544D01*
X588037Y429544D01*
X587245Y429383D01*
X586600Y428949D01*
X575151Y417500D01*
X574705Y416826D01*
X574556Y416063D01*
X574556Y399790D01*
X574717Y398997D01*
X575151Y398353D01*
X575498Y398006D01*
X576306Y396055D01*
X576306Y393945D01*
X575498Y391994D01*
X574006Y390502D01*
X572055Y389694D01*
X569945Y389694D01*
X567994Y390502D01*
X566502Y391994D01*
X565694Y393945D01*
X565694Y396055D01*
X566502Y398006D01*
X566849Y398353D01*
X567295Y399027D01*
X567444Y399790D01*
X567444Y419850D01*
X584250Y436656D01*
X609159Y436656D01*
X609952Y436817D01*
X610407Y437124D01*
X618158Y437124D01*
X618951Y437285D01*
X619618Y437742D01*
X620053Y438424D01*
X620190Y439156D01*
X620190Y440705D01*
X620029Y441497D01*
X619572Y442164D01*
X618891Y442600D01*
X618093Y442736D01*
X617380Y442582D01*
X617212Y442512D01*
X604757Y442512D01*
X604254Y442412D01*
X601888Y442412D01*
X599835Y443263D01*
X598263Y444835D01*
X597412Y446888D01*
X597412Y449112D01*
X598263Y451165D01*
X599935Y452837D01*
X601988Y453688D01*
X617212Y453688D01*
X617266Y453665D01*
X618060Y453511D01*
X618851Y453678D01*
X619515Y454141D01*
X619945Y454825D01*
X620076Y455543D01*
X620076Y464731D01*
X620969Y465624D01*
X627231Y465624D01*
X628124Y464731D01*
X628124Y456556D01*
X628285Y455763D01*
X628742Y455096D01*
X629424Y454661D01*
X630221Y454525D01*
X630934Y454679D01*
X631734Y455010D01*
X637466Y455010D01*
X638266Y454679D01*
X639060Y454524D01*
X639851Y454691D01*
X640515Y455154D01*
X640945Y455839D01*
X641076Y456556D01*
X641076Y464731D01*
X641969Y465624D01*
X647746Y465624D01*
X648539Y465785D01*
X649206Y466242D01*
X649641Y466924D01*
X649778Y467656D01*
X649778Y504921D01*
X649617Y505714D01*
X649160Y506381D01*
X648479Y506817D01*
X647681Y506952D01*
X646894Y506766D01*
X646242Y506288D01*
X645869Y505699D01*
X644259Y501813D01*
X641187Y498741D01*
X637173Y497078D01*
X632827Y497078D01*
X628813Y498741D01*
X625741Y501813D01*
X624078Y505827D01*
X624078Y506737D01*
X623917Y507529D01*
X623460Y508196D01*
X622779Y508632D01*
X621981Y508768D01*
X621194Y508582D01*
X620542Y508103D01*
X620169Y507515D01*
X618859Y504353D01*
X615787Y501281D01*
X611773Y499618D01*
X607427Y499618D01*
X603413Y501281D01*
X600341Y504353D01*
X599031Y507515D01*
X598579Y508185D01*
X597902Y508626D01*
X597105Y508768D01*
X596317Y508588D01*
X595661Y508115D01*
X595242Y507424D01*
X595122Y506737D01*
X595122Y505827D01*
X593459Y501813D01*
X590387Y498741D01*
X589010Y498171D01*
X588340Y497719D01*
X587899Y497041D01*
X587756Y496293D01*
X587756Y483727D01*
X575473Y471444D01*
X548791Y471444D01*
X547998Y471283D01*
X547331Y470826D01*
X546895Y470145D01*
X546760Y469347D01*
X546946Y468560D01*
X547424Y467908D01*
X548013Y467535D01*
X551155Y466233D01*
X554013Y463375D01*
X555560Y459641D01*
X555560Y450762D01*
X535240Y450762D01*
X535240Y459641D01*
X536787Y463375D01*
X539645Y466233D01*
X542787Y467535D01*
X543457Y467987D01*
X543899Y468664D01*
X544041Y469461D01*
X543861Y470249D01*
X543388Y470905D01*
X542696Y471324D01*
X542009Y471444D01*
X534315Y471444D01*
X533522Y471283D01*
X532878Y470849D01*
X527727Y465698D01*
X527280Y465024D01*
X527132Y464229D01*
X527306Y463439D01*
X527727Y462824D01*
X527752Y462800D01*
X529144Y459439D01*
X529144Y440561D01*
X527752Y437200D01*
X525180Y434628D01*
X521819Y433236D01*
X518181Y433236D01*
X514820Y434628D01*
X512248Y437200D01*
X510856Y440561D01*
X510856Y459439D01*
X512248Y462800D01*
X514820Y465372D01*
X518458Y466879D01*
X518686Y466925D01*
X519330Y467359D01*
X530527Y478556D01*
X571685Y478556D01*
X572478Y478717D01*
X573122Y479151D01*
X580049Y486078D01*
X580495Y486752D01*
X580644Y487515D01*
X580644Y496293D01*
X580483Y497086D01*
X580026Y497753D01*
X579390Y498171D01*
X578013Y498741D01*
X574941Y501813D01*
X573278Y505827D01*
X573278Y506737D01*
X573117Y507529D01*
X572660Y508196D01*
X571979Y508632D01*
X571181Y508768D01*
X570394Y508582D01*
X569742Y508103D01*
X569369Y507515D01*
X568059Y504353D01*
X564987Y501281D01*
X560973Y499618D01*
X556627Y499618D01*
X552613Y501281D01*
X549541Y504353D01*
X548231Y507515D01*
X547779Y508185D01*
X547102Y508626D01*
X546305Y508768D01*
X545517Y508588D01*
X544861Y508115D01*
X544442Y507424D01*
X544322Y506737D01*
X544322Y505827D01*
X542659Y501813D01*
X539587Y498741D01*
X535573Y497078D01*
X531227Y497078D01*
X527213Y498741D01*
X524141Y501813D01*
X522478Y505827D01*
X522478Y506737D01*
X522317Y507529D01*
X521860Y508196D01*
X521179Y508632D01*
X520381Y508768D01*
X519594Y508582D01*
X518942Y508103D01*
X518569Y507515D01*
X517259Y504353D01*
X514187Y501281D01*
X512810Y500711D01*
X512140Y500259D01*
X511699Y499581D01*
X511556Y498833D01*
X511556Y488527D01*
X493262Y470233D01*
X492815Y469559D01*
X492667Y468764D01*
X492840Y467974D01*
X493308Y467314D01*
X493996Y466889D01*
X494699Y466764D01*
X496419Y466764D01*
X499780Y465372D01*
X502352Y462800D01*
X503744Y459439D01*
X503744Y440561D01*
X502352Y437200D01*
X501799Y436648D01*
X501353Y435973D01*
X501204Y435211D01*
X501204Y433286D01*
X500199Y430859D01*
X485741Y416401D01*
X483314Y415396D01*
X447636Y415396D01*
X446843Y415235D01*
X446176Y414778D01*
X445741Y414097D01*
X445604Y413364D01*
X445604Y384686D01*
X444599Y382259D01*
X442741Y380401D01*
X440314Y379396D01*
X437686Y379396D01*
X435259Y380401D01*
X433401Y382259D01*
X432396Y384686D01*
X432396Y413364D01*
X432235Y414157D01*
X431778Y414824D01*
X431097Y415259D01*
X430364Y415396D01*
X388686Y415396D01*
X386259Y416401D01*
X374401Y428259D01*
X373396Y430686D01*
X373396Y435211D01*
X373235Y436003D01*
X372801Y436648D01*
X372248Y437200D01*
X370856Y440561D01*
X370856Y459439D01*
X372095Y462430D01*
X372250Y463224D01*
X372083Y464015D01*
X371620Y464679D01*
X370935Y465109D01*
X370218Y465240D01*
X368111Y465240D01*
X367318Y465079D01*
X366674Y464645D01*
X364037Y462008D01*
X363591Y461334D01*
X363442Y460539D01*
X363597Y459794D01*
X363744Y459439D01*
X363744Y440561D01*
X362352Y437200D01*
X359780Y434628D01*
X356419Y433236D01*
X352781Y433236D01*
X349420Y434628D01*
X346848Y437200D01*
X345456Y440561D01*
X345456Y459439D01*
X346848Y462800D01*
X349420Y465372D01*
X352781Y466764D01*
X356419Y466764D01*
X356802Y466605D01*
X357596Y466451D01*
X358387Y466618D01*
X359017Y467046D01*
X364323Y472352D01*
X484481Y472352D01*
X485274Y472513D01*
X485918Y472947D01*
X503849Y490878D01*
X504295Y491552D01*
X504444Y492315D01*
X504444Y498833D01*
X504283Y499626D01*
X503826Y500293D01*
X503190Y500711D01*
X501813Y501281D01*
X498741Y504353D01*
X497431Y507515D01*
X496979Y508185D01*
X496302Y508626D01*
X495505Y508768D01*
X494717Y508588D01*
X494061Y508115D01*
X493642Y507424D01*
X493522Y506737D01*
X493522Y505827D01*
X491859Y501813D01*
X488787Y498741D01*
X484773Y497078D01*
X480427Y497078D01*
X476413Y498741D01*
X473341Y501813D01*
X471678Y505827D01*
X471678Y506737D01*
X471517Y507529D01*
X471060Y508196D01*
X470379Y508632D01*
X469581Y508768D01*
X468794Y508582D01*
X468142Y508103D01*
X467769Y507515D01*
X466459Y504353D01*
X463387Y501281D01*
X459373Y499618D01*
X455027Y499618D01*
X451013Y501281D01*
X447941Y504353D01*
X446278Y508367D01*
X446278Y512713D01*
X447941Y516727D01*
X450608Y519394D01*
X451054Y520068D01*
X451203Y520863D01*
X451029Y521653D01*
X450561Y522313D01*
X449873Y522738D01*
X449171Y522863D01*
X421974Y522863D01*
X421182Y522702D01*
X420515Y522244D01*
X420079Y521563D01*
X419943Y520766D01*
X420130Y519979D01*
X420608Y519327D01*
X421197Y518953D01*
X425287Y517259D01*
X428359Y514187D01*
X430022Y510173D01*
X430022Y505827D01*
X428359Y501813D01*
X425287Y498741D01*
X421273Y497078D01*
X416927Y497078D01*
X412913Y498741D01*
X409841Y501813D01*
X408178Y505827D01*
X408178Y506737D01*
X408017Y507529D01*
X407560Y508196D01*
X406879Y508632D01*
X406081Y508768D01*
X405294Y508582D01*
X404642Y508103D01*
X404269Y507515D01*
X402959Y504353D01*
X399887Y501281D01*
X395873Y499618D01*
X391527Y499618D01*
X387513Y501281D01*
X384441Y504353D01*
X383131Y507515D01*
X382679Y508185D01*
X382002Y508626D01*
X381205Y508768D01*
X380417Y508588D01*
X379761Y508115D01*
X379342Y507424D01*
X379222Y506737D01*
X379222Y505827D01*
X377559Y501813D01*
X374487Y498741D01*
X370473Y497078D01*
X366127Y497078D01*
X362113Y498741D01*
X359041Y501813D01*
X357378Y505827D01*
X357378Y506737D01*
X357217Y507529D01*
X356760Y508196D01*
X356079Y508632D01*
X355281Y508768D01*
X354494Y508582D01*
X353842Y508103D01*
X353469Y507515D01*
X352159Y504353D01*
X349087Y501281D01*
X345073Y499618D01*
X340727Y499618D01*
X336713Y501281D01*
X333641Y504353D01*
X332331Y507515D01*
X331879Y508185D01*
X331202Y508626D01*
X330405Y508768D01*
X329617Y508588D01*
X328961Y508115D01*
X328542Y507424D01*
X328422Y506737D01*
X328422Y505827D01*
X326759Y501813D01*
X323687Y498741D01*
X319673Y497078D01*
X315327Y497078D01*
X311313Y498741D01*
X308241Y501813D01*
X306578Y505827D01*
X306578Y506737D01*
X306417Y507529D01*
X305960Y508196D01*
X305279Y508632D01*
X304481Y508768D01*
X303694Y508582D01*
X303042Y508103D01*
X302669Y507515D01*
X301359Y504353D01*
X298287Y501281D01*
X294273Y499618D01*
X289927Y499618D01*
X285913Y501281D01*
X282841Y504353D01*
X282353Y505530D01*
X281901Y506201D01*
X281224Y506642D01*
X280427Y506784D01*
X279639Y506604D01*
X278983Y506131D01*
X278599Y505530D01*
X276821Y501238D01*
X273462Y497879D01*
X269075Y496062D01*
X267462Y496062D01*
X267462Y508762D01*
X265938Y508762D01*
X265938Y496062D01*
X264325Y496062D01*
X259938Y497879D01*
X256579Y501238D01*
X254801Y505530D01*
X254349Y506201D01*
X253672Y506642D01*
X252876Y506784D01*
X252087Y506604D01*
X251431Y506131D01*
X251047Y505530D01*
X250559Y504353D01*
X247487Y501281D01*
X243473Y499618D01*
X239127Y499618D01*
X235113Y501281D01*
X232041Y504353D01*
X230731Y507515D01*
X230279Y508185D01*
X229602Y508626D01*
X228805Y508768D01*
X228017Y508588D01*
X227361Y508115D01*
X226942Y507424D01*
X226822Y506737D01*
X226822Y505827D01*
X225159Y501813D01*
X222087Y498741D01*
X218073Y497078D01*
X213727Y497078D01*
X209713Y498741D01*
X206641Y501813D01*
X205077Y505588D01*
X204625Y506258D01*
X203948Y506700D01*
X203151Y506841D01*
X202363Y506662D01*
X201707Y506189D01*
X201323Y505588D01*
X199759Y501813D01*
X196687Y498741D01*
X192673Y497078D01*
X188327Y497078D01*
X184313Y498741D01*
X181828Y501226D01*
X181153Y501673D01*
X180358Y501821D01*
X179569Y501648D01*
X178909Y501180D01*
X178481Y500484D01*
X176265Y494395D01*
X170190Y487156D01*
X162007Y482431D01*
X152700Y480790D01*
X143393Y482431D01*
X135210Y487156D01*
X129135Y494395D01*
X125903Y503275D01*
X125903Y512725D01*
X128600Y520136D01*
X128720Y520936D01*
X128518Y521719D01*
X128027Y522361D01*
X127325Y522761D01*
X126691Y522863D01*
X12954Y522863D01*
X12161Y522702D01*
X11494Y522244D01*
X11059Y521563D01*
X10922Y520831D01*
X10922Y275500D01*
X11083Y274708D01*
X11540Y274041D01*
X12222Y273605D01*
X13019Y273469D01*
X13732Y273623D01*
X17829Y275320D01*
X22015Y275320D01*
X25883Y273718D01*
X28844Y270757D01*
X30446Y266889D01*
X30446Y262703D01*
X29351Y260058D01*
X29196Y259281D01*
X29196Y252165D01*
X28514Y251483D01*
X28067Y250809D01*
X27919Y250014D01*
X28093Y249224D01*
X28514Y248609D01*
X29196Y247927D01*
X29196Y231665D01*
X28764Y231233D01*
X28317Y230559D01*
X28169Y229764D01*
X28343Y228974D01*
X28764Y228359D01*
X29196Y227927D01*
X29196Y211665D01*
X28514Y210983D01*
X28067Y210309D01*
X27919Y209514D01*
X28093Y208724D01*
X28514Y208109D01*
X29196Y207427D01*
X29196Y200311D01*
X29351Y199534D01*
X30446Y196889D01*
X30446Y192703D01*
X28844Y188835D01*
X25883Y185874D01*
X22015Y184272D01*
X17829Y184272D01*
X13732Y185969D01*
X12938Y186124D01*
X12147Y185956D01*
X11483Y185494D01*
X11053Y184809D01*
X10922Y184092D01*
X10922Y12954D01*
X11083Y12161D01*
X11540Y11494D01*
X12222Y11059D01*
X12954Y10922D01*
X113551Y10922D01*
X114343Y11083D01*
G37*
%LPC*%
G36*
X115686Y355396D02*
X113259Y356401D01*
X111401Y358259D01*
X110396Y360686D01*
X110396Y387314D01*
X111401Y389741D01*
X117259Y395599D01*
X119686Y396604D01*
X123405Y396604D01*
X124198Y396765D01*
X124865Y397222D01*
X125300Y397904D01*
X125396Y398417D01*
X126330Y399351D01*
X130285Y399351D01*
X131078Y399511D01*
X131745Y399969D01*
X132180Y400650D01*
X132317Y401383D01*
X132317Y414235D01*
X133322Y416662D01*
X140101Y423440D01*
X140547Y424115D01*
X140696Y424877D01*
X140696Y435211D01*
X140535Y436003D01*
X140101Y436648D01*
X139548Y437200D01*
X138156Y440561D01*
X138156Y459439D01*
X139548Y462800D01*
X142120Y465372D01*
X145481Y466764D01*
X149119Y466764D01*
X152480Y465372D01*
X155052Y462800D01*
X156444Y459439D01*
X156444Y440561D01*
X155052Y437200D01*
X154499Y436648D01*
X154053Y435973D01*
X153904Y435211D01*
X153904Y419986D01*
X152899Y417559D01*
X146120Y410781D01*
X145674Y410106D01*
X145525Y409344D01*
X145525Y401383D01*
X145686Y400590D01*
X146143Y399923D01*
X146825Y399487D01*
X147557Y399351D01*
X151512Y399351D01*
X152405Y398458D01*
X152405Y381542D01*
X151512Y380650D01*
X125636Y380650D01*
X124843Y380489D01*
X124176Y380031D01*
X123741Y379350D01*
X123604Y378618D01*
X123604Y360686D01*
X122599Y358259D01*
X120741Y356401D01*
X118314Y355396D01*
X115686Y355396D01*
G37*
G36*
X269333Y334572D02*
X264572Y339333D01*
X264572Y346067D01*
X269333Y350828D01*
X272084Y350828D01*
X272876Y350989D01*
X273521Y351423D01*
X274896Y352798D01*
X275342Y353473D01*
X275491Y354235D01*
X275491Y378618D01*
X275330Y379410D01*
X274873Y380077D01*
X274192Y380513D01*
X273459Y380650D01*
X268488Y380650D01*
X267595Y381542D01*
X267595Y398458D01*
X268488Y399351D01*
X273459Y399351D01*
X274252Y399511D01*
X274919Y399969D01*
X275354Y400650D01*
X275491Y401383D01*
X275491Y431204D01*
X275330Y431997D01*
X274873Y432664D01*
X274192Y433099D01*
X273459Y433236D01*
X270881Y433236D01*
X267520Y434628D01*
X264948Y437200D01*
X263556Y440561D01*
X263556Y459439D01*
X264948Y462800D01*
X267520Y465372D01*
X270881Y466764D01*
X274519Y466764D01*
X277880Y465372D01*
X280452Y462800D01*
X281844Y459439D01*
X281844Y449600D01*
X282005Y448808D01*
X282439Y448163D01*
X285816Y444786D01*
X286667Y442733D01*
X286667Y401383D01*
X286828Y400590D01*
X287285Y399923D01*
X287967Y399487D01*
X288699Y399351D01*
X293670Y399351D01*
X294563Y398458D01*
X294563Y381542D01*
X293670Y380650D01*
X288699Y380650D01*
X287906Y380489D01*
X287239Y380031D01*
X286804Y379350D01*
X286667Y378618D01*
X286667Y349967D01*
X285816Y347914D01*
X281423Y343521D01*
X280977Y342846D01*
X280828Y342084D01*
X280828Y339333D01*
X276067Y334572D01*
X269333Y334572D01*
G37*
G36*
X237686Y367396D02*
X235259Y368401D01*
X233322Y370338D01*
X232317Y372765D01*
X232317Y378618D01*
X232156Y379410D01*
X231699Y380077D01*
X231018Y380513D01*
X230285Y380650D01*
X226330Y380650D01*
X225437Y381542D01*
X225437Y398458D01*
X226330Y399351D01*
X230285Y399351D01*
X231078Y399511D01*
X231745Y399969D01*
X232180Y400650D01*
X232317Y401383D01*
X232317Y418235D01*
X233322Y420662D01*
X240101Y427440D01*
X240547Y428115D01*
X240696Y428877D01*
X240696Y435211D01*
X240535Y436003D01*
X240101Y436648D01*
X239548Y437200D01*
X238156Y440561D01*
X238156Y459439D01*
X239548Y462800D01*
X242120Y465372D01*
X245481Y466764D01*
X249119Y466764D01*
X252480Y465372D01*
X255052Y462800D01*
X256444Y459439D01*
X256444Y440561D01*
X255052Y437200D01*
X254499Y436648D01*
X254053Y435973D01*
X253904Y435211D01*
X253904Y423986D01*
X252899Y421559D01*
X246120Y414781D01*
X245674Y414106D01*
X245525Y413344D01*
X245525Y401383D01*
X245686Y400590D01*
X246143Y399923D01*
X246825Y399487D01*
X247557Y399351D01*
X251512Y399351D01*
X252405Y398458D01*
X252405Y381542D01*
X251512Y380650D01*
X247557Y380650D01*
X246764Y380489D01*
X246097Y380031D01*
X245662Y379350D01*
X245525Y378618D01*
X245525Y375909D01*
X245604Y375511D01*
X245604Y372686D01*
X244599Y370259D01*
X242741Y368401D01*
X240314Y367396D01*
X237686Y367396D01*
G37*
G36*
X169333Y334572D02*
X164572Y339333D01*
X164572Y346067D01*
X169333Y350828D01*
X172084Y350828D01*
X172876Y350989D01*
X173521Y351423D01*
X174896Y352798D01*
X175342Y353473D01*
X175491Y354235D01*
X175491Y378618D01*
X175330Y379410D01*
X174873Y380077D01*
X174192Y380513D01*
X173459Y380650D01*
X168488Y380650D01*
X167595Y381542D01*
X167595Y398458D01*
X168488Y399351D01*
X173459Y399351D01*
X174252Y399511D01*
X174919Y399969D01*
X175354Y400650D01*
X175491Y401383D01*
X175491Y431204D01*
X175330Y431997D01*
X174873Y432664D01*
X174192Y433099D01*
X173459Y433236D01*
X170881Y433236D01*
X167520Y434628D01*
X164948Y437200D01*
X163556Y440561D01*
X163556Y459439D01*
X164948Y462800D01*
X167520Y465372D01*
X170881Y466764D01*
X174519Y466764D01*
X177880Y465372D01*
X180452Y462800D01*
X181844Y459439D01*
X181844Y449600D01*
X182005Y448808D01*
X182439Y448163D01*
X185816Y444786D01*
X186667Y442733D01*
X186667Y401383D01*
X186828Y400590D01*
X187285Y399923D01*
X187967Y399487D01*
X188699Y399351D01*
X193670Y399351D01*
X194563Y398458D01*
X194563Y381542D01*
X193670Y380650D01*
X188699Y380650D01*
X187906Y380489D01*
X187239Y380031D01*
X186804Y379350D01*
X186667Y378618D01*
X186667Y349967D01*
X185816Y347914D01*
X181423Y343521D01*
X180977Y342846D01*
X180828Y342084D01*
X180828Y339333D01*
X176067Y334572D01*
X169333Y334572D01*
G37*
G36*
X543379Y432220D02*
X539645Y433767D01*
X536787Y436625D01*
X535240Y440359D01*
X535240Y449238D01*
X544638Y449238D01*
X544638Y432220D01*
X543379Y432220D01*
G37*
G36*
X546162Y432220D02*
X546162Y449238D01*
X555560Y449238D01*
X555560Y440359D01*
X554013Y436625D01*
X551155Y433767D01*
X547421Y432220D01*
X546162Y432220D01*
G37*
G36*
X608560Y403862D02*
X608560Y406652D01*
X610048Y408140D01*
X615338Y408140D01*
X615338Y403862D01*
X608560Y403862D01*
G37*
G36*
X314945Y379694D02*
X312994Y380502D01*
X311502Y381994D01*
X310694Y383945D01*
X310694Y386055D01*
X311502Y388006D01*
X312994Y389498D01*
X315139Y390386D01*
X315798Y390827D01*
X327527Y402556D01*
X332444Y402556D01*
X333237Y402717D01*
X333904Y403174D01*
X334339Y403856D01*
X334476Y404588D01*
X334476Y405631D01*
X335369Y406524D01*
X347631Y406524D01*
X348563Y405592D01*
X349237Y405145D01*
X350032Y404997D01*
X350822Y405171D01*
X351437Y405592D01*
X352369Y406524D01*
X364631Y406524D01*
X365524Y405631D01*
X365524Y405588D01*
X365685Y404795D01*
X366142Y404128D01*
X366824Y403693D01*
X367556Y403556D01*
X376211Y403556D01*
X377003Y403717D01*
X377647Y404151D01*
X377994Y404498D01*
X379945Y405306D01*
X382055Y405306D01*
X384006Y404498D01*
X385498Y403006D01*
X386306Y401055D01*
X386306Y398945D01*
X385498Y396994D01*
X384006Y395502D01*
X382055Y394694D01*
X379945Y394694D01*
X377994Y395502D01*
X377647Y395849D01*
X376973Y396295D01*
X376211Y396444D01*
X367556Y396444D01*
X366763Y396283D01*
X366096Y395826D01*
X365661Y395145D01*
X365524Y394412D01*
X365524Y394369D01*
X364631Y393476D01*
X352369Y393476D01*
X351437Y394408D01*
X350763Y394855D01*
X349968Y395003D01*
X349178Y394829D01*
X348563Y394408D01*
X347631Y393476D01*
X335369Y393476D01*
X333996Y394849D01*
X333322Y395295D01*
X332559Y395444D01*
X331315Y395444D01*
X330522Y395283D01*
X329878Y394849D01*
X321901Y386872D01*
X321455Y386198D01*
X321306Y385435D01*
X321306Y383945D01*
X320498Y381994D01*
X319006Y380502D01*
X317055Y379694D01*
X314945Y379694D01*
G37*
G36*
X610048Y398060D02*
X608560Y399548D01*
X608560Y402338D01*
X615338Y402338D01*
X615338Y398060D01*
X610048Y398060D01*
G37*
G36*
X578181Y63236D02*
X574820Y64628D01*
X572248Y67200D01*
X570856Y70561D01*
X570856Y89439D01*
X572248Y92800D01*
X574820Y95372D01*
X578181Y96764D01*
X581893Y96764D01*
X582686Y96925D01*
X583330Y97359D01*
X588527Y102556D01*
X596685Y102556D01*
X597478Y102717D01*
X598122Y103151D01*
X607649Y112678D01*
X608095Y113352D01*
X608244Y114115D01*
X608244Y121444D01*
X608083Y122237D01*
X607626Y122904D01*
X606945Y123339D01*
X606693Y123386D01*
X606213Y123705D01*
X605418Y123853D01*
X604628Y123679D01*
X604331Y123476D01*
X593858Y123476D01*
X593513Y123705D01*
X592718Y123853D01*
X591928Y123679D01*
X591631Y123476D01*
X581158Y123476D01*
X580813Y123705D01*
X580018Y123853D01*
X579228Y123679D01*
X578931Y123476D01*
X568458Y123476D01*
X568113Y123705D01*
X567318Y123853D01*
X566528Y123679D01*
X566231Y123476D01*
X555758Y123476D01*
X555413Y123705D01*
X554618Y123853D01*
X553828Y123679D01*
X553531Y123476D01*
X543058Y123476D01*
X542713Y123705D01*
X541918Y123853D01*
X541128Y123679D01*
X540831Y123476D01*
X530358Y123476D01*
X530013Y123705D01*
X529218Y123853D01*
X528428Y123679D01*
X528131Y123476D01*
X517658Y123476D01*
X517313Y123705D01*
X516518Y123853D01*
X515728Y123679D01*
X515431Y123476D01*
X504958Y123476D01*
X504613Y123705D01*
X503818Y123853D01*
X503028Y123679D01*
X502731Y123476D01*
X492369Y123476D01*
X491476Y124369D01*
X491476Y140631D01*
X492485Y141640D01*
X492705Y141685D01*
X493372Y142142D01*
X493807Y142824D01*
X493944Y143556D01*
X493944Y145973D01*
X501527Y153556D01*
X511685Y153556D01*
X512478Y153717D01*
X513122Y154151D01*
X516849Y157878D01*
X517295Y158552D01*
X517444Y159315D01*
X517444Y223035D01*
X517283Y223827D01*
X516826Y224494D01*
X516145Y224930D01*
X515347Y225065D01*
X514560Y224879D01*
X513975Y224471D01*
X513006Y223502D01*
X511055Y222694D01*
X508945Y222694D01*
X506994Y223502D01*
X505502Y224994D01*
X504694Y226945D01*
X504694Y229055D01*
X505502Y231006D01*
X505849Y231353D01*
X506295Y232027D01*
X506444Y232790D01*
X506444Y296444D01*
X506283Y297237D01*
X505826Y297904D01*
X505313Y298231D01*
X505287Y298258D01*
X504613Y298705D01*
X503818Y298853D01*
X503028Y298679D01*
X502731Y298476D01*
X492369Y298476D01*
X491476Y299369D01*
X491476Y315631D01*
X492369Y316524D01*
X502742Y316524D01*
X503087Y316295D01*
X503882Y316147D01*
X504672Y316321D01*
X504969Y316524D01*
X515442Y316524D01*
X515787Y316295D01*
X516582Y316147D01*
X517372Y316321D01*
X517669Y316524D01*
X528142Y316524D01*
X528487Y316295D01*
X529282Y316147D01*
X530072Y316321D01*
X530369Y316524D01*
X540842Y316524D01*
X541187Y316295D01*
X541982Y316147D01*
X542772Y316321D01*
X543069Y316524D01*
X553542Y316524D01*
X553887Y316295D01*
X554682Y316147D01*
X555472Y316321D01*
X555769Y316524D01*
X566242Y316524D01*
X566587Y316295D01*
X567382Y316147D01*
X568172Y316321D01*
X568469Y316524D01*
X578942Y316524D01*
X579287Y316295D01*
X580082Y316147D01*
X580872Y316321D01*
X581169Y316524D01*
X591642Y316524D01*
X591987Y316295D01*
X592782Y316147D01*
X593572Y316321D01*
X593869Y316524D01*
X604342Y316524D01*
X604687Y316295D01*
X605482Y316147D01*
X606272Y316321D01*
X606569Y316524D01*
X617042Y316524D01*
X617387Y316295D01*
X618182Y316147D01*
X618972Y316321D01*
X619269Y316524D01*
X622570Y316524D01*
X623363Y316685D01*
X624030Y317142D01*
X624466Y317824D01*
X624601Y318621D01*
X624415Y319408D01*
X624007Y319993D01*
X618151Y325849D01*
X617477Y326295D01*
X616714Y326444D01*
X582527Y326444D01*
X574344Y334627D01*
X574344Y336744D01*
X574183Y337537D01*
X573726Y338204D01*
X573045Y338639D01*
X572312Y338776D01*
X572269Y338776D01*
X571376Y339669D01*
X571376Y340212D01*
X571215Y341005D01*
X570758Y341672D01*
X570077Y342107D01*
X569344Y342244D01*
X558756Y342244D01*
X557963Y342083D01*
X557296Y341626D01*
X556861Y340945D01*
X556724Y340212D01*
X556724Y340169D01*
X555831Y339276D01*
X543569Y339276D01*
X543355Y339489D01*
X542681Y339936D01*
X541886Y340084D01*
X541096Y339911D01*
X540482Y339490D01*
X539252Y338260D01*
X533462Y338260D01*
X533462Y353340D01*
X539252Y353340D01*
X540482Y352111D01*
X541156Y351664D01*
X541951Y351516D01*
X542741Y351689D01*
X543355Y352111D01*
X543569Y352324D01*
X555831Y352324D01*
X556724Y351431D01*
X556724Y351388D01*
X556885Y350595D01*
X557342Y349928D01*
X558024Y349493D01*
X558756Y349356D01*
X569344Y349356D01*
X570137Y349517D01*
X570804Y349974D01*
X571239Y350656D01*
X571376Y351388D01*
X571376Y351931D01*
X572269Y352824D01*
X583531Y352824D01*
X584963Y351392D01*
X585637Y350945D01*
X586432Y350797D01*
X587222Y350971D01*
X587837Y351392D01*
X588717Y352272D01*
X589163Y352946D01*
X589312Y353709D01*
X589312Y359591D01*
X589151Y360384D01*
X588717Y361028D01*
X588128Y361617D01*
X587454Y362063D01*
X586691Y362212D01*
X563051Y362212D01*
X562258Y362051D01*
X561591Y361594D01*
X561156Y360913D01*
X561019Y360180D01*
X561019Y359184D01*
X560126Y358291D01*
X544894Y358291D01*
X544001Y359184D01*
X544001Y374416D01*
X544894Y375309D01*
X560126Y375309D01*
X561452Y373983D01*
X562126Y373537D01*
X562889Y373388D01*
X586691Y373388D01*
X587484Y373549D01*
X588128Y373983D01*
X588417Y374272D01*
X588863Y374946D01*
X589012Y375709D01*
X589012Y396712D01*
X589863Y398765D01*
X591835Y400737D01*
X593888Y401588D01*
X596112Y401588D01*
X598165Y400737D01*
X599737Y399165D01*
X600588Y397112D01*
X600588Y394888D01*
X600343Y394296D01*
X600188Y393519D01*
X600188Y375709D01*
X600349Y374916D01*
X600783Y374272D01*
X600945Y374110D01*
X601619Y373664D01*
X602414Y373516D01*
X603204Y373689D01*
X603818Y374111D01*
X605048Y375340D01*
X610838Y375340D01*
X610838Y360260D01*
X605048Y360260D01*
X603957Y361351D01*
X603283Y361798D01*
X602488Y361946D01*
X601698Y361772D01*
X601038Y361305D01*
X600613Y360616D01*
X600488Y359914D01*
X600488Y353709D01*
X600649Y352916D01*
X601083Y352272D01*
X601172Y352183D01*
X601846Y351737D01*
X602609Y351588D01*
X619714Y351588D01*
X621768Y350737D01*
X638774Y333731D01*
X639448Y333285D01*
X640243Y333136D01*
X640714Y333240D01*
X640618Y332922D01*
X640707Y332118D01*
X641205Y331300D01*
X654570Y317936D01*
X655244Y317489D01*
X656039Y317341D01*
X656829Y317514D01*
X656867Y317540D01*
X661838Y317540D01*
X661838Y297460D01*
X657520Y297460D01*
X656727Y297299D01*
X656060Y296842D01*
X655625Y296161D01*
X655488Y295428D01*
X655488Y293788D01*
X654637Y291735D01*
X649165Y286263D01*
X647112Y285412D01*
X644888Y285412D01*
X642835Y286263D01*
X641263Y287835D01*
X640412Y289888D01*
X640412Y292112D01*
X641263Y294165D01*
X642105Y295007D01*
X642551Y295681D01*
X642699Y296476D01*
X642526Y297266D01*
X642058Y297926D01*
X641370Y298351D01*
X640668Y298476D01*
X631958Y298476D01*
X631613Y298705D01*
X630818Y298853D01*
X630028Y298679D01*
X629731Y298476D01*
X619258Y298476D01*
X618913Y298705D01*
X618118Y298853D01*
X617328Y298679D01*
X617031Y298476D01*
X606558Y298476D01*
X606213Y298705D01*
X605418Y298853D01*
X604628Y298679D01*
X604331Y298476D01*
X593858Y298476D01*
X593513Y298705D01*
X592718Y298853D01*
X591928Y298679D01*
X591631Y298476D01*
X581158Y298476D01*
X580813Y298705D01*
X580018Y298853D01*
X579228Y298679D01*
X578931Y298476D01*
X568458Y298476D01*
X568113Y298705D01*
X567318Y298853D01*
X566528Y298679D01*
X566231Y298476D01*
X555758Y298476D01*
X555413Y298705D01*
X554618Y298853D01*
X553828Y298679D01*
X553531Y298476D01*
X543058Y298476D01*
X542713Y298705D01*
X541918Y298853D01*
X541128Y298679D01*
X540831Y298476D01*
X530358Y298476D01*
X530013Y298705D01*
X529218Y298853D01*
X528428Y298679D01*
X528131Y298476D01*
X517658Y298476D01*
X517313Y298705D01*
X516518Y298853D01*
X515728Y298679D01*
X515365Y298431D01*
X514795Y298315D01*
X514128Y297858D01*
X513693Y297177D01*
X513556Y296444D01*
X513556Y260491D01*
X513717Y259698D01*
X514174Y259031D01*
X514856Y258595D01*
X515653Y258460D01*
X516440Y258646D01*
X517025Y259054D01*
X526527Y268556D01*
X558685Y268556D01*
X559478Y268717D01*
X560122Y269151D01*
X565849Y274878D01*
X566295Y275552D01*
X566444Y276315D01*
X566444Y283211D01*
X566283Y284003D01*
X565849Y284647D01*
X565502Y284994D01*
X564694Y286945D01*
X564694Y289055D01*
X565502Y291006D01*
X566994Y292498D01*
X568945Y293306D01*
X571055Y293306D01*
X573006Y292498D01*
X574498Y291006D01*
X575306Y289055D01*
X575306Y286945D01*
X574498Y284994D01*
X574151Y284647D01*
X573705Y283973D01*
X573556Y283211D01*
X573556Y272527D01*
X562473Y261444D01*
X530315Y261444D01*
X529522Y261283D01*
X528878Y260849D01*
X525151Y257122D01*
X524705Y256448D01*
X524556Y255685D01*
X524556Y155527D01*
X515473Y146444D01*
X505315Y146444D01*
X504522Y146283D01*
X503878Y145849D01*
X503022Y144993D01*
X502575Y144319D01*
X502427Y143524D01*
X502600Y142734D01*
X503068Y142074D01*
X503756Y141649D01*
X504459Y141524D01*
X515442Y141524D01*
X515787Y141295D01*
X516582Y141147D01*
X517372Y141321D01*
X517669Y141524D01*
X528142Y141524D01*
X528487Y141295D01*
X529282Y141147D01*
X530072Y141321D01*
X530369Y141524D01*
X540842Y141524D01*
X541187Y141295D01*
X541982Y141147D01*
X542772Y141321D01*
X543069Y141524D01*
X553542Y141524D01*
X553887Y141295D01*
X554682Y141147D01*
X555472Y141321D01*
X555769Y141524D01*
X566242Y141524D01*
X566587Y141295D01*
X567382Y141147D01*
X568172Y141321D01*
X568469Y141524D01*
X578942Y141524D01*
X579287Y141295D01*
X580082Y141147D01*
X580872Y141321D01*
X581169Y141524D01*
X591642Y141524D01*
X591987Y141295D01*
X592782Y141147D01*
X593572Y141321D01*
X593869Y141524D01*
X604342Y141524D01*
X604687Y141295D01*
X605482Y141147D01*
X606272Y141321D01*
X606569Y141524D01*
X617042Y141524D01*
X617387Y141295D01*
X618182Y141147D01*
X618972Y141321D01*
X619269Y141524D01*
X629742Y141524D01*
X630087Y141295D01*
X630882Y141147D01*
X631672Y141321D01*
X631969Y141524D01*
X642442Y141524D01*
X642787Y141295D01*
X643582Y141147D01*
X644372Y141321D01*
X644669Y141524D01*
X655190Y141524D01*
X655983Y141685D01*
X656627Y142119D01*
X657048Y142540D01*
X661838Y142540D01*
X661838Y122460D01*
X657048Y122460D01*
X656627Y122881D01*
X655953Y123327D01*
X655190Y123476D01*
X644658Y123476D01*
X644313Y123705D01*
X643518Y123853D01*
X642728Y123679D01*
X642431Y123476D01*
X631958Y123476D01*
X631613Y123705D01*
X630818Y123853D01*
X630028Y123679D01*
X629581Y123373D01*
X629295Y123315D01*
X628628Y122858D01*
X628193Y122177D01*
X628056Y121444D01*
X628056Y107027D01*
X614310Y93281D01*
X613864Y92607D01*
X613715Y91812D01*
X613870Y91067D01*
X614544Y89439D01*
X614544Y70561D01*
X613152Y67200D01*
X610580Y64628D01*
X607219Y63236D01*
X603581Y63236D01*
X600220Y64628D01*
X597648Y67200D01*
X596256Y70561D01*
X596256Y89439D01*
X597580Y92634D01*
X597734Y93428D01*
X597567Y94219D01*
X597104Y94883D01*
X596420Y95313D01*
X595702Y95444D01*
X592315Y95444D01*
X591522Y95283D01*
X590878Y94849D01*
X589027Y92998D01*
X588581Y92324D01*
X588432Y91529D01*
X588587Y90784D01*
X589144Y89439D01*
X589144Y70561D01*
X587752Y67200D01*
X585180Y64628D01*
X581819Y63236D01*
X578181Y63236D01*
G37*
G36*
X312888Y126412D02*
X310835Y127263D01*
X301309Y136789D01*
X300458Y138842D01*
X300458Y148992D01*
X300297Y149784D01*
X299863Y150428D01*
X298699Y151592D01*
X298699Y171008D01*
X300146Y172454D01*
X300240Y172519D01*
X300675Y173200D01*
X300812Y173933D01*
X300812Y179891D01*
X300651Y180684D01*
X300217Y181328D01*
X299728Y181817D01*
X299054Y182263D01*
X298291Y182412D01*
X297156Y182412D01*
X296364Y182251D01*
X295719Y181817D01*
X285065Y171163D01*
X283012Y170312D01*
X277250Y170312D01*
X276458Y170151D01*
X275827Y169726D01*
X262277Y169726D01*
X260976Y171027D01*
X260976Y180773D01*
X262277Y182074D01*
X275827Y182074D01*
X276488Y181637D01*
X277250Y181488D01*
X278744Y181488D01*
X279536Y181649D01*
X280181Y182083D01*
X290835Y192737D01*
X292888Y193588D01*
X298691Y193588D01*
X299484Y193749D01*
X300128Y194183D01*
X300269Y194324D01*
X312531Y194324D01*
X312745Y194111D01*
X313419Y193664D01*
X314214Y193516D01*
X315004Y193689D01*
X315618Y194111D01*
X316848Y195340D01*
X322638Y195340D01*
X322638Y180260D01*
X316848Y180260D01*
X315618Y181490D01*
X314944Y181936D01*
X314149Y182084D01*
X313359Y181911D01*
X312745Y181490D01*
X312583Y181328D01*
X312137Y180654D01*
X311988Y179891D01*
X311988Y173254D01*
X312149Y172462D01*
X312583Y171818D01*
X313393Y171008D01*
X313393Y151592D01*
X312229Y150428D01*
X311783Y149754D01*
X311634Y148992D01*
X311634Y143110D01*
X311795Y142318D01*
X312229Y141673D01*
X315719Y138183D01*
X316394Y137737D01*
X317156Y137588D01*
X365844Y137588D01*
X366636Y137749D01*
X367281Y138183D01*
X374817Y145719D01*
X375263Y146394D01*
X375412Y147156D01*
X375412Y305112D01*
X376263Y307165D01*
X397835Y328737D01*
X399888Y329588D01*
X441112Y329588D01*
X443165Y328737D01*
X455848Y316055D01*
X456522Y315608D01*
X457317Y315460D01*
X458107Y315634D01*
X458766Y316102D01*
X459162Y316714D01*
X459282Y317005D01*
X459281Y317005D01*
X459295Y317027D01*
X459444Y317790D01*
X459444Y360685D01*
X459283Y361478D01*
X458849Y362122D01*
X454883Y366088D01*
X454209Y366534D01*
X453447Y366683D01*
X452956Y366683D01*
X451006Y367491D01*
X449513Y368983D01*
X448705Y370933D01*
X448705Y373044D01*
X449513Y374994D01*
X451006Y376487D01*
X452956Y377295D01*
X455067Y377295D01*
X457017Y376487D01*
X458509Y374994D01*
X459317Y373044D01*
X459317Y372553D01*
X459478Y371761D01*
X459912Y371117D01*
X466556Y364473D01*
X466556Y319041D01*
X466717Y318248D01*
X467151Y317604D01*
X468124Y316631D01*
X468932Y314681D01*
X468932Y312570D01*
X468124Y310620D01*
X466565Y309061D01*
X466044Y308710D01*
X465602Y308032D01*
X465460Y307236D01*
X465640Y306447D01*
X466055Y305848D01*
X478737Y293165D01*
X479588Y291112D01*
X479588Y288888D01*
X478806Y287000D01*
X478651Y286206D01*
X478818Y285415D01*
X479281Y284751D01*
X479966Y284321D01*
X480683Y284190D01*
X484238Y284190D01*
X484238Y276388D01*
X495040Y276388D01*
X495040Y271598D01*
X494619Y271177D01*
X494173Y270503D01*
X494024Y269740D01*
X494024Y259208D01*
X493795Y258863D01*
X493647Y258068D01*
X493821Y257278D01*
X494024Y256981D01*
X494024Y246508D01*
X493795Y246163D01*
X493647Y245368D01*
X493821Y244578D01*
X494024Y244281D01*
X494024Y233808D01*
X493795Y233463D01*
X493647Y232668D01*
X493821Y231878D01*
X494024Y231581D01*
X494024Y221108D01*
X493795Y220763D01*
X493647Y219968D01*
X493821Y219178D01*
X494024Y218881D01*
X494024Y208408D01*
X493795Y208063D01*
X493647Y207268D01*
X493821Y206478D01*
X494024Y206181D01*
X494024Y195708D01*
X493795Y195363D01*
X493647Y194568D01*
X493821Y193778D01*
X494024Y193481D01*
X494024Y183008D01*
X493795Y182663D01*
X493647Y181868D01*
X493821Y181078D01*
X494024Y180781D01*
X494024Y170308D01*
X493795Y169963D01*
X493647Y169168D01*
X493821Y168378D01*
X494024Y168081D01*
X494024Y157719D01*
X493131Y156826D01*
X476869Y156826D01*
X475976Y157719D01*
X475976Y168092D01*
X476205Y168437D01*
X476353Y169232D01*
X476179Y170022D01*
X475873Y170469D01*
X475815Y170755D01*
X475358Y171422D01*
X474677Y171857D01*
X473944Y171994D01*
X432977Y171994D01*
X427444Y177527D01*
X427444Y182724D01*
X427283Y183517D01*
X426826Y184184D01*
X426145Y184619D01*
X425412Y184756D01*
X421561Y184756D01*
X418200Y186148D01*
X415628Y188720D01*
X414236Y192081D01*
X414236Y195719D01*
X415628Y199080D01*
X418200Y201652D01*
X421561Y203044D01*
X440439Y203044D01*
X443800Y201652D01*
X446372Y199080D01*
X447764Y195719D01*
X447764Y192081D01*
X446372Y188720D01*
X443800Y186148D01*
X440439Y184756D01*
X436588Y184756D01*
X435795Y184595D01*
X435128Y184138D01*
X434693Y183457D01*
X434556Y182724D01*
X434556Y181315D01*
X434717Y180522D01*
X435151Y179878D01*
X435328Y179701D01*
X436002Y179255D01*
X436765Y179106D01*
X473944Y179106D01*
X474737Y179267D01*
X475404Y179724D01*
X475839Y180406D01*
X475886Y180657D01*
X476205Y181137D01*
X476353Y181932D01*
X476179Y182722D01*
X475976Y183019D01*
X475976Y193492D01*
X476205Y193837D01*
X476353Y194632D01*
X476179Y195422D01*
X475976Y195719D01*
X475976Y206192D01*
X476205Y206537D01*
X476353Y207332D01*
X476179Y208122D01*
X475976Y208419D01*
X475976Y218892D01*
X476205Y219237D01*
X476353Y220032D01*
X476179Y220822D01*
X475976Y221119D01*
X475976Y231592D01*
X476205Y231937D01*
X476353Y232732D01*
X476179Y233522D01*
X475976Y233819D01*
X475976Y244292D01*
X476205Y244637D01*
X476353Y245432D01*
X476179Y246222D01*
X475976Y246519D01*
X475976Y256992D01*
X476205Y257337D01*
X476353Y258132D01*
X476179Y258922D01*
X475758Y259537D01*
X475524Y259771D01*
X475358Y260013D01*
X474677Y260449D01*
X473879Y260585D01*
X473092Y260399D01*
X472440Y259920D01*
X472067Y259331D01*
X471241Y257339D01*
X453865Y239963D01*
X451812Y239112D01*
X446805Y239112D01*
X446013Y238951D01*
X445368Y238517D01*
X443800Y236948D01*
X440439Y235556D01*
X421561Y235556D01*
X418200Y236948D01*
X415628Y239520D01*
X414236Y242881D01*
X414236Y246519D01*
X415628Y249880D01*
X418200Y252452D01*
X421561Y253844D01*
X440439Y253844D01*
X443800Y252452D01*
X445368Y250883D01*
X446043Y250437D01*
X446805Y250288D01*
X447544Y250288D01*
X448336Y250449D01*
X448981Y250883D01*
X460321Y262223D01*
X460767Y262898D01*
X460916Y263660D01*
X460916Y283616D01*
X461767Y285669D01*
X464661Y288563D01*
X465107Y289237D01*
X465255Y290032D01*
X465082Y290822D01*
X464661Y291437D01*
X438281Y317817D01*
X437606Y318263D01*
X436844Y318412D01*
X404156Y318412D01*
X403364Y318251D01*
X402719Y317817D01*
X387183Y302281D01*
X386737Y301606D01*
X386588Y300844D01*
X386588Y142888D01*
X385737Y140835D01*
X372165Y127263D01*
X370112Y126412D01*
X312888Y126412D01*
G37*
G36*
X335369Y363476D02*
X334476Y364369D01*
X334476Y364412D01*
X334315Y365205D01*
X333858Y365872D01*
X333177Y366307D01*
X332444Y366444D01*
X323790Y366444D01*
X322997Y366283D01*
X322353Y365849D01*
X322006Y365502D01*
X320055Y364694D01*
X317945Y364694D01*
X315994Y365502D01*
X314502Y366994D01*
X313694Y368945D01*
X313694Y371055D01*
X314502Y373006D01*
X315994Y374498D01*
X317945Y375306D01*
X320055Y375306D01*
X322006Y374498D01*
X322353Y374151D01*
X323027Y373705D01*
X323790Y373556D01*
X332444Y373556D01*
X333237Y373717D01*
X333904Y374174D01*
X334339Y374856D01*
X334476Y375588D01*
X334476Y375631D01*
X335369Y376524D01*
X347631Y376524D01*
X348563Y375592D01*
X349237Y375145D01*
X350032Y374997D01*
X350822Y375171D01*
X351437Y375592D01*
X352369Y376524D01*
X364631Y376524D01*
X365524Y375631D01*
X365524Y375588D01*
X365685Y374795D01*
X366142Y374128D01*
X366824Y373693D01*
X367556Y373556D01*
X376211Y373556D01*
X377003Y373717D01*
X377647Y374151D01*
X377994Y374498D01*
X379945Y375306D01*
X382055Y375306D01*
X384006Y374498D01*
X385498Y373006D01*
X386306Y371055D01*
X386306Y368945D01*
X385498Y366994D01*
X384006Y365502D01*
X382055Y364694D01*
X379945Y364694D01*
X377994Y365502D01*
X377647Y365849D01*
X376973Y366295D01*
X376211Y366444D01*
X367556Y366444D01*
X366763Y366283D01*
X366096Y365826D01*
X365661Y365145D01*
X365524Y364412D01*
X365524Y364369D01*
X364631Y363476D01*
X352369Y363476D01*
X351437Y364408D01*
X350763Y364855D01*
X349968Y365003D01*
X349178Y364829D01*
X348563Y364408D01*
X347631Y363476D01*
X335369Y363476D01*
G37*
G36*
X509965Y367562D02*
X509965Y374837D01*
X511453Y376325D01*
X518728Y376325D01*
X518728Y367562D01*
X509965Y367562D01*
G37*
G36*
X520252Y367562D02*
X520252Y376325D01*
X527527Y376325D01*
X529015Y374837D01*
X529015Y367562D01*
X520252Y367562D01*
G37*
G36*
X612362Y368562D02*
X612362Y375340D01*
X618152Y375340D01*
X619640Y373852D01*
X619640Y368562D01*
X612362Y368562D01*
G37*
G36*
X612362Y360260D02*
X612362Y367038D01*
X619640Y367038D01*
X619640Y361748D01*
X618152Y360260D01*
X612362Y360260D01*
G37*
G36*
X511453Y357275D02*
X509965Y358763D01*
X509965Y366038D01*
X518728Y366038D01*
X518728Y357275D01*
X511453Y357275D01*
G37*
G36*
X526568Y356725D02*
X525879Y357150D01*
X525177Y357275D01*
X520252Y357275D01*
X520252Y366038D01*
X529015Y366038D01*
X529015Y358763D01*
X527061Y356809D01*
X526794Y356406D01*
X526568Y356725D01*
G37*
G36*
X524660Y346562D02*
X524660Y351852D01*
X526614Y353806D01*
X526881Y354209D01*
X527107Y353890D01*
X527796Y353465D01*
X528498Y353340D01*
X531938Y353340D01*
X531938Y346562D01*
X524660Y346562D01*
G37*
G36*
X392945Y339694D02*
X390994Y340502D01*
X389502Y341994D01*
X388694Y343945D01*
X388694Y346055D01*
X389502Y348006D01*
X390994Y349498D01*
X392945Y350306D01*
X395055Y350306D01*
X397006Y349498D01*
X397353Y349151D01*
X398027Y348705D01*
X398790Y348556D01*
X421211Y348556D01*
X422003Y348717D01*
X422647Y349151D01*
X422994Y349498D01*
X424945Y350306D01*
X427055Y350306D01*
X429006Y349498D01*
X430498Y348006D01*
X431306Y346055D01*
X431306Y343945D01*
X430498Y341994D01*
X429006Y340502D01*
X427055Y339694D01*
X424945Y339694D01*
X422994Y340502D01*
X422647Y340849D01*
X421973Y341295D01*
X421211Y341444D01*
X398790Y341444D01*
X397997Y341283D01*
X397353Y340849D01*
X397006Y340502D01*
X395055Y339694D01*
X392945Y339694D01*
G37*
G36*
X526148Y338260D02*
X524660Y339748D01*
X524660Y345038D01*
X531938Y345038D01*
X531938Y338260D01*
X526148Y338260D01*
G37*
G36*
X238156Y318062D02*
X238156Y321088D01*
X243512Y326444D01*
X246538Y326444D01*
X246538Y318062D01*
X238156Y318062D01*
G37*
G36*
X148062Y318062D02*
X148062Y326444D01*
X151088Y326444D01*
X156444Y321088D01*
X156444Y318062D01*
X148062Y318062D01*
G37*
G36*
X248062Y318062D02*
X248062Y326444D01*
X251088Y326444D01*
X256444Y321088D01*
X256444Y318062D01*
X248062Y318062D01*
G37*
G36*
X138156Y318062D02*
X138156Y321088D01*
X143512Y326444D01*
X146538Y326444D01*
X146538Y318062D01*
X138156Y318062D01*
G37*
G36*
X269333Y309172D02*
X264572Y313933D01*
X264572Y320667D01*
X269333Y325428D01*
X276067Y325428D01*
X280828Y320667D01*
X280828Y313933D01*
X276067Y309172D01*
X269333Y309172D01*
G37*
G36*
X169333Y309172D02*
X164572Y313933D01*
X164572Y320667D01*
X169333Y325428D01*
X176067Y325428D01*
X180828Y320667D01*
X180828Y313933D01*
X176067Y309172D01*
X169333Y309172D01*
G37*
G36*
X663362Y308262D02*
X663362Y317540D01*
X668152Y317540D01*
X669640Y316052D01*
X669640Y308262D01*
X663362Y308262D01*
G37*
G36*
X148062Y308156D02*
X148062Y316538D01*
X156444Y316538D01*
X156444Y313512D01*
X151088Y308156D01*
X148062Y308156D01*
G37*
G36*
X143512Y308156D02*
X138156Y313512D01*
X138156Y316538D01*
X146538Y316538D01*
X146538Y308156D01*
X143512Y308156D01*
G37*
G36*
X248062Y308156D02*
X248062Y316538D01*
X256444Y316538D01*
X256444Y313512D01*
X251088Y308156D01*
X248062Y308156D01*
G37*
G36*
X243512Y308156D02*
X238156Y313512D01*
X238156Y316538D01*
X246538Y316538D01*
X246538Y308156D01*
X243512Y308156D01*
G37*
G36*
X663362Y297460D02*
X663362Y306738D01*
X669640Y306738D01*
X669640Y298948D01*
X668152Y297460D01*
X663362Y297460D01*
G37*
G36*
X355945Y249694D02*
X353994Y250502D01*
X352502Y251994D01*
X351694Y253945D01*
X351694Y256055D01*
X352502Y258006D01*
X352849Y258353D01*
X353295Y259027D01*
X353444Y259790D01*
X353444Y281211D01*
X353283Y282003D01*
X352849Y282647D01*
X352502Y282994D01*
X351694Y284945D01*
X351694Y287055D01*
X352502Y289006D01*
X353994Y290498D01*
X355945Y291306D01*
X358055Y291306D01*
X360006Y290498D01*
X361498Y289006D01*
X362306Y287055D01*
X362306Y284945D01*
X361498Y282994D01*
X361151Y282647D01*
X360705Y281973D01*
X360556Y281211D01*
X360556Y259790D01*
X360717Y258997D01*
X361151Y258353D01*
X361498Y258006D01*
X362306Y256055D01*
X362306Y253945D01*
X361498Y251994D01*
X360006Y250502D01*
X358055Y249694D01*
X355945Y249694D01*
G37*
G36*
X135481Y63236D02*
X132120Y64628D01*
X129548Y67200D01*
X128156Y70561D01*
X128156Y89439D01*
X129548Y92800D01*
X130101Y93352D01*
X130547Y94027D01*
X130696Y94789D01*
X130696Y182614D01*
X131701Y185041D01*
X176601Y229940D01*
X177047Y230615D01*
X177196Y231377D01*
X177196Y234664D01*
X177035Y235457D01*
X176578Y236124D01*
X175897Y236559D01*
X175164Y236696D01*
X169956Y236696D01*
X169163Y236535D01*
X168496Y236078D01*
X168061Y235397D01*
X167925Y234670D01*
X167031Y233776D01*
X147769Y233776D01*
X146455Y235090D01*
X146258Y235378D01*
X145577Y235813D01*
X144844Y235950D01*
X132777Y235950D01*
X131999Y235795D01*
X131760Y235696D01*
X117456Y235696D01*
X116663Y235535D01*
X115996Y235078D01*
X115561Y234397D01*
X115425Y233670D01*
X114531Y232776D01*
X95269Y232776D01*
X94298Y233746D01*
X94215Y234157D01*
X93758Y234824D01*
X93077Y235259D01*
X92344Y235396D01*
X58686Y235396D01*
X57756Y235782D01*
X56962Y235936D01*
X56171Y235769D01*
X55507Y235306D01*
X55077Y234622D01*
X54946Y233904D01*
X54946Y221956D01*
X55107Y221163D01*
X55541Y220519D01*
X55962Y220098D01*
X55962Y217558D01*
X37382Y217558D01*
X37382Y220098D01*
X37803Y220519D01*
X38249Y221193D01*
X38398Y221956D01*
X38398Y245677D01*
X39727Y247006D01*
X40174Y247680D01*
X40322Y248475D01*
X40148Y249265D01*
X39727Y249880D01*
X39662Y249945D01*
X38358Y253093D01*
X38358Y256500D01*
X39662Y259647D01*
X42071Y262056D01*
X45219Y263360D01*
X48626Y263360D01*
X51773Y262056D01*
X54182Y259647D01*
X55486Y256500D01*
X55486Y253093D01*
X54456Y250606D01*
X54302Y249813D01*
X54469Y249021D01*
X54931Y248358D01*
X55616Y247928D01*
X56415Y247798D01*
X57111Y247952D01*
X58686Y248604D01*
X92344Y248604D01*
X93137Y248765D01*
X93804Y249222D01*
X94239Y249904D01*
X94376Y250636D01*
X94376Y250931D01*
X95269Y251824D01*
X114531Y251824D01*
X115425Y250930D01*
X115585Y250143D01*
X116042Y249476D01*
X116724Y249041D01*
X117456Y248904D01*
X121889Y248904D01*
X122681Y249065D01*
X123348Y249522D01*
X123784Y250204D01*
X123920Y251001D01*
X123734Y251788D01*
X123326Y252373D01*
X123309Y252389D01*
X123309Y257284D01*
X138091Y257284D01*
X138091Y252268D01*
X137882Y251953D01*
X137734Y251158D01*
X137907Y250368D01*
X138375Y249708D01*
X139063Y249283D01*
X139765Y249158D01*
X144844Y249158D01*
X145637Y249319D01*
X146304Y249776D01*
X146739Y250458D01*
X146876Y251190D01*
X146876Y251931D01*
X147769Y252824D01*
X167031Y252824D01*
X167925Y251930D01*
X168085Y251143D01*
X168542Y250476D01*
X169224Y250041D01*
X169956Y249904D01*
X175164Y249904D01*
X175957Y250065D01*
X176624Y250522D01*
X177059Y251204D01*
X177196Y251936D01*
X177196Y277114D01*
X178201Y279541D01*
X184259Y285599D01*
X186686Y286604D01*
X278314Y286604D01*
X280741Y285599D01*
X300445Y265895D01*
X301450Y263468D01*
X301450Y254592D01*
X301611Y253800D01*
X302045Y253156D01*
X302193Y253008D01*
X302193Y246134D01*
X302354Y245342D01*
X302788Y244697D01*
X304099Y243387D01*
X305104Y240960D01*
X305104Y227402D01*
X305265Y226609D01*
X305722Y225942D01*
X306404Y225506D01*
X307201Y225371D01*
X307988Y225557D01*
X308573Y225965D01*
X308948Y226340D01*
X314738Y226340D01*
X314738Y211260D01*
X308948Y211260D01*
X307718Y212490D01*
X307044Y212936D01*
X306249Y213084D01*
X305459Y212911D01*
X304845Y212490D01*
X304631Y212276D01*
X302157Y212276D01*
X301365Y212115D01*
X300720Y211681D01*
X282241Y193201D01*
X279814Y192196D01*
X267736Y192196D01*
X267072Y192471D01*
X266294Y192626D01*
X262277Y192626D01*
X260976Y193927D01*
X260976Y203673D01*
X262277Y204974D01*
X266294Y204974D01*
X267072Y205129D01*
X267736Y205404D01*
X274923Y205404D01*
X275715Y205565D01*
X276360Y205999D01*
X290881Y220520D01*
X291327Y221195D01*
X291476Y221957D01*
X291476Y224521D01*
X291747Y224930D01*
X291896Y225693D01*
X291896Y230668D01*
X291735Y231460D01*
X291278Y232127D01*
X290597Y232563D01*
X289864Y232700D01*
X288392Y232700D01*
X287499Y233592D01*
X287499Y253008D01*
X287647Y253156D01*
X288093Y253830D01*
X288242Y254592D01*
X288242Y258577D01*
X288081Y259369D01*
X287647Y260014D01*
X274860Y272801D01*
X274185Y273247D01*
X273423Y273396D01*
X192436Y273396D01*
X191643Y273235D01*
X190976Y272778D01*
X190541Y272097D01*
X190404Y271364D01*
X190404Y249965D01*
X190565Y249172D01*
X191022Y248505D01*
X191704Y248070D01*
X192501Y247934D01*
X193288Y248120D01*
X193873Y248528D01*
X195169Y249824D01*
X206431Y249824D01*
X207324Y248931D01*
X207324Y248388D01*
X207485Y247595D01*
X207942Y246928D01*
X208624Y246493D01*
X209356Y246356D01*
X209685Y246356D01*
X210478Y246517D01*
X211145Y246974D01*
X211580Y247656D01*
X211717Y248388D01*
X211717Y248490D01*
X212610Y249383D01*
X219990Y249383D01*
X220883Y248490D01*
X220883Y238110D01*
X219990Y237217D01*
X212610Y237217D01*
X211178Y238649D01*
X210504Y239095D01*
X209741Y239244D01*
X209356Y239244D01*
X208563Y239083D01*
X207896Y238626D01*
X207461Y237945D01*
X207324Y237212D01*
X207324Y236669D01*
X206431Y235776D01*
X195169Y235776D01*
X193873Y237072D01*
X193199Y237519D01*
X192404Y237667D01*
X191614Y237493D01*
X190954Y237025D01*
X190529Y236337D01*
X190404Y235635D01*
X190404Y226486D01*
X189399Y224059D01*
X144499Y179160D01*
X144053Y178485D01*
X143904Y177723D01*
X143904Y94789D01*
X144065Y93997D01*
X144499Y93352D01*
X145052Y92800D01*
X146444Y89439D01*
X146444Y70561D01*
X145052Y67200D01*
X142480Y64628D01*
X139119Y63236D01*
X135481Y63236D01*
G37*
G36*
X485762Y277912D02*
X485762Y284190D01*
X493552Y284190D01*
X495040Y282702D01*
X495040Y277912D01*
X485762Y277912D01*
G37*
G36*
X158162Y272062D02*
X158162Y281840D01*
X167452Y281840D01*
X168940Y280352D01*
X168940Y272062D01*
X158162Y272062D01*
G37*
G36*
X145860Y272062D02*
X145860Y280352D01*
X147348Y281840D01*
X156638Y281840D01*
X156638Y272062D01*
X145860Y272062D01*
G37*
G36*
X93360Y271062D02*
X93360Y279352D01*
X94848Y280840D01*
X104138Y280840D01*
X104138Y271062D01*
X93360Y271062D01*
G37*
G36*
X105662Y271062D02*
X105662Y280840D01*
X114952Y280840D01*
X116440Y279352D01*
X116440Y271062D01*
X105662Y271062D01*
G37*
G36*
X413220Y270862D02*
X413220Y272121D01*
X414767Y275855D01*
X417625Y278713D01*
X421359Y280260D01*
X430238Y280260D01*
X430238Y270862D01*
X413220Y270862D01*
G37*
G36*
X431762Y270862D02*
X431762Y280260D01*
X440641Y280260D01*
X444375Y278713D01*
X447233Y275855D01*
X448780Y272121D01*
X448780Y270862D01*
X431762Y270862D01*
G37*
G36*
X158162Y260760D02*
X158162Y270538D01*
X168940Y270538D01*
X168940Y262248D01*
X167452Y260760D01*
X158162Y260760D01*
G37*
G36*
X147348Y260760D02*
X145860Y262248D01*
X145860Y270538D01*
X156638Y270538D01*
X156638Y260760D01*
X147348Y260760D01*
G37*
G36*
X105662Y259760D02*
X105662Y269538D01*
X116440Y269538D01*
X116440Y261248D01*
X114952Y259760D01*
X105662Y259760D01*
G37*
G36*
X94848Y259760D02*
X93360Y261248D01*
X93360Y269538D01*
X104138Y269538D01*
X104138Y259760D01*
X94848Y259760D01*
G37*
G36*
X431762Y259940D02*
X431762Y269338D01*
X448780Y269338D01*
X448780Y268079D01*
X447233Y264345D01*
X444375Y261487D01*
X440641Y259940D01*
X431762Y259940D01*
G37*
G36*
X421359Y259940D02*
X417625Y261487D01*
X414767Y264345D01*
X413220Y268079D01*
X413220Y269338D01*
X430238Y269338D01*
X430238Y259940D01*
X421359Y259940D01*
G37*
G36*
X123309Y258808D02*
X123309Y263703D01*
X124797Y265191D01*
X129938Y265191D01*
X129938Y258808D01*
X123309Y258808D01*
G37*
G36*
X131462Y258808D02*
X131462Y265191D01*
X136603Y265191D01*
X138091Y263703D01*
X138091Y258808D01*
X131462Y258808D01*
G37*
G36*
X564360Y249762D02*
X564360Y254552D01*
X565848Y256040D01*
X570638Y256040D01*
X570638Y249762D01*
X564360Y249762D01*
G37*
G36*
X572162Y213960D02*
X572162Y221762D01*
X564360Y221762D01*
X564360Y226552D01*
X564371Y226563D01*
X564818Y227237D01*
X564966Y228032D01*
X564792Y228822D01*
X564371Y229437D01*
X564360Y229448D01*
X564360Y234238D01*
X572162Y234238D01*
X572162Y235762D01*
X564360Y235762D01*
X564360Y240552D01*
X564371Y240563D01*
X564818Y241237D01*
X564966Y242032D01*
X564792Y242822D01*
X564371Y243437D01*
X564360Y243448D01*
X564360Y248238D01*
X572162Y248238D01*
X572162Y256040D01*
X576952Y256040D01*
X576963Y256029D01*
X577637Y255582D01*
X578432Y255434D01*
X579222Y255608D01*
X579837Y256029D01*
X579848Y256040D01*
X584638Y256040D01*
X584638Y248238D01*
X586162Y248238D01*
X586162Y256040D01*
X590952Y256040D01*
X590963Y256029D01*
X591637Y255582D01*
X592432Y255434D01*
X593222Y255608D01*
X593837Y256029D01*
X593848Y256040D01*
X598638Y256040D01*
X598638Y248238D01*
X606440Y248238D01*
X606440Y243448D01*
X606429Y243437D01*
X605982Y242763D01*
X605834Y241968D01*
X606008Y241178D01*
X606429Y240563D01*
X606440Y240552D01*
X606440Y235762D01*
X598638Y235762D01*
X598638Y234238D01*
X606440Y234238D01*
X606440Y229448D01*
X606429Y229437D01*
X605982Y228763D01*
X605834Y227968D01*
X606008Y227178D01*
X606429Y226563D01*
X606440Y226552D01*
X606440Y221762D01*
X598638Y221762D01*
X598638Y213960D01*
X593848Y213960D01*
X593837Y213971D01*
X593163Y214418D01*
X592368Y214566D01*
X591578Y214392D01*
X590963Y213971D01*
X590952Y213960D01*
X586162Y213960D01*
X586162Y221762D01*
X584638Y221762D01*
X584638Y213960D01*
X579848Y213960D01*
X579837Y213971D01*
X579163Y214418D01*
X578368Y214566D01*
X577578Y214392D01*
X576963Y213971D01*
X576952Y213960D01*
X572162Y213960D01*
G37*
G36*
X600162Y249762D02*
X600162Y256040D01*
X604952Y256040D01*
X606440Y254552D01*
X606440Y249762D01*
X600162Y249762D01*
G37*
G36*
X325116Y244062D02*
X325116Y254917D01*
X331229Y254917D01*
X332717Y253429D01*
X332717Y244062D01*
X325116Y244062D01*
G37*
G36*
X315991Y244062D02*
X315991Y253429D01*
X317479Y254917D01*
X323592Y254917D01*
X323592Y244062D01*
X315991Y244062D01*
G37*
G36*
X232062Y244062D02*
X232062Y250399D01*
X235411Y250399D01*
X236899Y248911D01*
X236899Y244062D01*
X232062Y244062D01*
G37*
G36*
X225701Y244062D02*
X225701Y248911D01*
X227189Y250399D01*
X230538Y250399D01*
X230538Y244062D01*
X225701Y244062D01*
G37*
G36*
X317479Y231684D02*
X315991Y233171D01*
X315991Y242538D01*
X323592Y242538D01*
X323592Y231684D01*
X317479Y231684D01*
G37*
G36*
X325116Y231684D02*
X325116Y242538D01*
X332717Y242538D01*
X332717Y233171D01*
X331229Y231684D01*
X325116Y231684D01*
G37*
G36*
X227189Y236201D02*
X225701Y237689D01*
X225701Y242538D01*
X230538Y242538D01*
X230538Y236201D01*
X227189Y236201D01*
G37*
G36*
X232062Y236201D02*
X232062Y242538D01*
X236899Y242538D01*
X236899Y237689D01*
X235411Y236201D01*
X232062Y236201D01*
G37*
G36*
X421561Y210156D02*
X418200Y211548D01*
X415628Y214120D01*
X414236Y217481D01*
X414236Y221119D01*
X415628Y224480D01*
X418200Y227052D01*
X421561Y228444D01*
X440439Y228444D01*
X443800Y227052D01*
X446372Y224480D01*
X446525Y224110D01*
X446977Y223440D01*
X447655Y222999D01*
X448402Y222856D01*
X461511Y222856D01*
X462303Y223017D01*
X462947Y223451D01*
X462994Y223498D01*
X464945Y224306D01*
X467055Y224306D01*
X469006Y223498D01*
X470498Y222006D01*
X471306Y220055D01*
X471306Y217945D01*
X470498Y215994D01*
X469006Y214502D01*
X467055Y213694D01*
X464945Y213694D01*
X462994Y214502D01*
X462347Y215149D01*
X461673Y215595D01*
X460911Y215744D01*
X448402Y215744D01*
X447610Y215583D01*
X446943Y215126D01*
X446525Y214490D01*
X446372Y214120D01*
X443800Y211548D01*
X440439Y210156D01*
X421561Y210156D01*
G37*
G36*
X316262Y219562D02*
X316262Y226340D01*
X322052Y226340D01*
X323540Y224852D01*
X323540Y219562D01*
X316262Y219562D01*
G37*
G36*
X600162Y213960D02*
X600162Y220238D01*
X606440Y220238D01*
X606440Y215448D01*
X604952Y213960D01*
X600162Y213960D01*
G37*
G36*
X565848Y213960D02*
X564360Y215448D01*
X564360Y220238D01*
X570638Y220238D01*
X570638Y213960D01*
X565848Y213960D01*
G37*
G36*
X316262Y211260D02*
X316262Y218038D01*
X323540Y218038D01*
X323540Y212748D01*
X322052Y211260D01*
X316262Y211260D01*
G37*
G36*
X45219Y196232D02*
X42071Y197536D01*
X39662Y199945D01*
X38358Y203093D01*
X38358Y206500D01*
X39601Y209501D01*
X39756Y210295D01*
X39589Y211086D01*
X39161Y211715D01*
X37382Y213494D01*
X37382Y216034D01*
X55962Y216034D01*
X55962Y213494D01*
X54537Y212069D01*
X54090Y211395D01*
X53942Y210600D01*
X54096Y209854D01*
X55486Y206500D01*
X55486Y203093D01*
X54182Y199945D01*
X51773Y197536D01*
X48626Y196232D01*
X45219Y196232D01*
G37*
G36*
X324162Y188562D02*
X324162Y195340D01*
X329952Y195340D01*
X331440Y193852D01*
X331440Y188562D01*
X324162Y188562D01*
G37*
G36*
X195544Y158176D02*
X194076Y159644D01*
X194076Y192156D01*
X195544Y193624D01*
X208756Y193624D01*
X210224Y192156D01*
X210224Y159644D01*
X208756Y158176D01*
X195544Y158176D01*
G37*
G36*
X324162Y180260D02*
X324162Y187038D01*
X331440Y187038D01*
X331440Y181748D01*
X329952Y180260D01*
X324162Y180260D01*
G37*
G36*
X327191Y162062D02*
X327191Y171429D01*
X328679Y172917D01*
X334792Y172917D01*
X334792Y162062D01*
X327191Y162062D01*
G37*
G36*
X336316Y162062D02*
X336316Y172917D01*
X342429Y172917D01*
X343917Y171429D01*
X343917Y162062D01*
X336316Y162062D01*
G37*
G36*
X336316Y149684D02*
X336316Y160538D01*
X343917Y160538D01*
X343917Y151171D01*
X342429Y149684D01*
X336316Y149684D01*
G37*
G36*
X328679Y149684D02*
X327191Y151171D01*
X327191Y160538D01*
X334792Y160538D01*
X334792Y149684D01*
X328679Y149684D01*
G37*
G36*
X259960Y153762D02*
X259960Y158294D01*
X261857Y160190D01*
X268288Y160190D01*
X268288Y153762D01*
X259960Y153762D01*
G37*
G36*
X269812Y153762D02*
X269812Y160190D01*
X276244Y160190D01*
X278140Y158294D01*
X278140Y153762D01*
X269812Y153762D01*
G37*
G36*
X269812Y145810D02*
X269812Y152238D01*
X278140Y152238D01*
X278140Y147707D01*
X276244Y145810D01*
X269812Y145810D01*
G37*
G36*
X261857Y145810D02*
X259960Y147707D01*
X259960Y152238D01*
X268288Y152238D01*
X268288Y145810D01*
X261857Y145810D01*
G37*
G36*
X663362Y133262D02*
X663362Y142540D01*
X668152Y142540D01*
X669640Y141052D01*
X669640Y133262D01*
X663362Y133262D01*
G37*
G36*
X663362Y122460D02*
X663362Y131738D01*
X669640Y131738D01*
X669640Y123948D01*
X668152Y122460D01*
X663362Y122460D01*
G37*
G36*
X427140Y80762D02*
X427140Y89641D01*
X428687Y93375D01*
X431545Y96233D01*
X435279Y97780D01*
X436538Y97780D01*
X436538Y80762D01*
X427140Y80762D01*
G37*
G36*
X163462Y80762D02*
X163462Y97780D01*
X164721Y97780D01*
X168455Y96233D01*
X171313Y93375D01*
X172860Y89641D01*
X172860Y80762D01*
X163462Y80762D01*
G37*
G36*
X544440Y80762D02*
X544440Y89641D01*
X545987Y93375D01*
X548845Y96233D01*
X552579Y97780D01*
X553838Y97780D01*
X553838Y80762D01*
X544440Y80762D01*
G37*
G36*
X257140Y80762D02*
X257140Y89641D01*
X258687Y93375D01*
X261545Y96233D01*
X265279Y97780D01*
X266538Y97780D01*
X266538Y80762D01*
X257140Y80762D01*
G37*
G36*
X152540Y80762D02*
X152540Y89641D01*
X154087Y93375D01*
X156945Y96233D01*
X160679Y97780D01*
X161938Y97780D01*
X161938Y80762D01*
X152540Y80762D01*
G37*
G36*
X555362Y80762D02*
X555362Y97780D01*
X556621Y97780D01*
X560355Y96233D01*
X563213Y93375D01*
X564760Y89641D01*
X564760Y80762D01*
X555362Y80762D01*
G37*
G36*
X438062Y80762D02*
X438062Y97780D01*
X439321Y97780D01*
X443055Y96233D01*
X445913Y93375D01*
X447460Y89641D01*
X447460Y80762D01*
X438062Y80762D01*
G37*
G36*
X268062Y80762D02*
X268062Y97780D01*
X269321Y97780D01*
X273055Y96233D01*
X275913Y93375D01*
X277460Y89641D01*
X277460Y80762D01*
X268062Y80762D01*
G37*
G36*
X316281Y63236D02*
X312920Y64628D01*
X310348Y67200D01*
X308956Y70561D01*
X308956Y89439D01*
X310348Y92800D01*
X312920Y95372D01*
X316281Y96764D01*
X319919Y96764D01*
X323280Y95372D01*
X325852Y92800D01*
X327244Y89439D01*
X327244Y70561D01*
X325852Y67200D01*
X323280Y64628D01*
X319919Y63236D01*
X316281Y63236D01*
G37*
G36*
X290881Y63236D02*
X287520Y64628D01*
X284948Y67200D01*
X283556Y70561D01*
X283556Y89439D01*
X284948Y92800D01*
X287520Y95372D01*
X290881Y96764D01*
X294519Y96764D01*
X297880Y95372D01*
X300452Y92800D01*
X301844Y89439D01*
X301844Y70561D01*
X300452Y67200D01*
X297880Y64628D01*
X294519Y63236D01*
X290881Y63236D01*
G37*
G36*
X460881Y63236D02*
X457520Y64628D01*
X454948Y67200D01*
X453556Y70561D01*
X453556Y89439D01*
X454948Y92800D01*
X457520Y95372D01*
X460881Y96764D01*
X464519Y96764D01*
X467880Y95372D01*
X470452Y92800D01*
X471844Y89439D01*
X471844Y70561D01*
X470452Y67200D01*
X467880Y64628D01*
X464519Y63236D01*
X460881Y63236D01*
G37*
G36*
X163462Y62220D02*
X163462Y79238D01*
X172860Y79238D01*
X172860Y70359D01*
X171313Y66625D01*
X168455Y63767D01*
X164721Y62220D01*
X163462Y62220D01*
G37*
G36*
X555362Y62220D02*
X555362Y79238D01*
X564760Y79238D01*
X564760Y70359D01*
X563213Y66625D01*
X560355Y63767D01*
X556621Y62220D01*
X555362Y62220D01*
G37*
G36*
X160679Y62220D02*
X156945Y63767D01*
X154087Y66625D01*
X152540Y70359D01*
X152540Y79238D01*
X161938Y79238D01*
X161938Y62220D01*
X160679Y62220D01*
G37*
G36*
X552579Y62220D02*
X548845Y63767D01*
X545987Y66625D01*
X544440Y70359D01*
X544440Y79238D01*
X553838Y79238D01*
X553838Y62220D01*
X552579Y62220D01*
G37*
G36*
X438062Y62220D02*
X438062Y79238D01*
X447460Y79238D01*
X447460Y70359D01*
X445913Y66625D01*
X443055Y63767D01*
X439321Y62220D01*
X438062Y62220D01*
G37*
G36*
X435279Y62220D02*
X431545Y63767D01*
X428687Y66625D01*
X427140Y70359D01*
X427140Y79238D01*
X436538Y79238D01*
X436538Y62220D01*
X435279Y62220D01*
G37*
G36*
X268062Y62220D02*
X268062Y79238D01*
X277460Y79238D01*
X277460Y70359D01*
X275913Y66625D01*
X273055Y63767D01*
X269321Y62220D01*
X268062Y62220D01*
G37*
G36*
X265279Y62220D02*
X261545Y63767D01*
X258687Y66625D01*
X257140Y70359D01*
X257140Y79238D01*
X266538Y79238D01*
X266538Y62220D01*
X265279Y62220D01*
G37*
%LPD*%
G36*
X402686Y428765D02*
X403353Y429222D01*
X403789Y429904D01*
X403924Y430701D01*
X403738Y431488D01*
X403260Y432140D01*
X402671Y432513D01*
X399645Y433767D01*
X396787Y436625D01*
X395240Y440359D01*
X395240Y449238D01*
X415560Y449238D01*
X415560Y440359D01*
X414013Y436625D01*
X411155Y433767D01*
X408129Y432513D01*
X407458Y432061D01*
X407017Y431384D01*
X406875Y430587D01*
X407055Y429799D01*
X407528Y429143D01*
X408220Y428724D01*
X408907Y428604D01*
X478423Y428604D01*
X479215Y428765D01*
X479860Y429199D01*
X486185Y435524D01*
X486631Y436198D01*
X486780Y436993D01*
X486625Y437739D01*
X485456Y440561D01*
X485456Y459439D01*
X486695Y462430D01*
X486850Y463224D01*
X486683Y464015D01*
X486220Y464679D01*
X485535Y465109D01*
X484818Y465240D01*
X416282Y465240D01*
X415489Y465079D01*
X414822Y464622D01*
X414387Y463941D01*
X414251Y463143D01*
X414405Y462430D01*
X415560Y459641D01*
X415560Y450762D01*
X395240Y450762D01*
X395240Y459641D01*
X396395Y462430D01*
X396550Y463224D01*
X396383Y464015D01*
X395920Y464679D01*
X395235Y465109D01*
X394518Y465240D01*
X389782Y465240D01*
X388990Y465079D01*
X388323Y464622D01*
X387887Y463941D01*
X387751Y463143D01*
X387905Y462430D01*
X389144Y459439D01*
X389144Y440561D01*
X387752Y437200D01*
X387382Y436831D01*
X386936Y436157D01*
X386787Y435362D01*
X386961Y434572D01*
X387382Y433957D01*
X392140Y429199D01*
X392815Y428753D01*
X393577Y428604D01*
X401893Y428604D01*
X402686Y428765D01*
G37*
D10*
X330200Y22860D03*
X355600Y25400D03*
X381000Y22860D03*
X406400Y25400D03*
X431800Y22860D03*
X457200Y25400D03*
X508000Y22860D03*
X533400Y25400D03*
X558800Y22860D03*
X584200Y25400D03*
X609600Y22860D03*
X635000Y25400D03*
X635000Y508000D03*
X609600Y510540D03*
X584200Y508000D03*
X558800Y510540D03*
X533400Y508000D03*
X508000Y510540D03*
X482600Y508000D03*
X457200Y510540D03*
X419100Y508000D03*
X393700Y510540D03*
X368300Y508000D03*
X342900Y510540D03*
X317500Y508000D03*
X292100Y510540D03*
X266700Y508000D03*
X241300Y510540D03*
X215900Y508000D03*
X190500Y508000D03*
X304800Y25400D03*
X279400Y22860D03*
D11*
X104900Y242300D03*
X104900Y270300D03*
X157400Y243300D03*
X157400Y271300D03*
D12*
X130700Y242554D03*
X130700Y258046D03*
D13*
X549700Y345800D03*
X532700Y345800D03*
X594600Y367800D03*
X611600Y367800D03*
D14*
X294846Y243300D03*
X324354Y243300D03*
D13*
X298500Y218800D03*
X315500Y218800D03*
X306400Y187800D03*
X323400Y187800D03*
D14*
X306046Y161300D03*
X335554Y161300D03*
D15*
X231300Y243300D03*
X216300Y243300D03*
D16*
X552510Y366800D03*
X519490Y366800D03*
D17*
X138921Y390000D03*
X181079Y390000D03*
X238921Y390000D03*
X281079Y390000D03*
D18*
X46672Y242796D03*
X46672Y236296D03*
X46672Y229796D03*
X46672Y223296D03*
X46672Y216796D03*
D19*
X19922Y239796D03*
X19922Y219796D03*
X19922Y260296D03*
X19922Y199296D03*
D20*
X46922Y254796D03*
X46922Y204796D03*
D21*
X19922Y264796D03*
X19922Y194796D03*
D22*
X520000Y442380D02*
X520000Y457620D01*
X494600Y457620D02*
X494600Y442380D01*
X545400Y442380D02*
X545400Y457620D01*
X380000Y457620D02*
X380000Y442380D01*
X354600Y442380D02*
X354600Y457620D01*
X405400Y457620D02*
X405400Y442380D01*
X267300Y87620D02*
X267300Y72380D01*
X241900Y72380D02*
X241900Y87620D01*
X292700Y87620D02*
X292700Y72380D01*
X318100Y72380D02*
X318100Y87620D01*
X437300Y87620D02*
X437300Y72380D01*
X411900Y72380D02*
X411900Y87620D01*
X462700Y87620D02*
X462700Y72380D01*
X488100Y72380D02*
X488100Y87620D01*
X272700Y442380D02*
X272700Y457620D01*
X247300Y457620D02*
X247300Y442380D01*
X580000Y87620D02*
X580000Y72380D01*
X605400Y72380D02*
X605400Y87620D01*
X554600Y87620D02*
X554600Y72380D01*
X172700Y442380D02*
X172700Y457620D01*
X147300Y457620D02*
X147300Y442380D01*
X423380Y219300D02*
X438620Y219300D01*
X438620Y193900D02*
X423380Y193900D01*
X423380Y244700D02*
X438620Y244700D01*
X438620Y270100D02*
X423380Y270100D01*
X162700Y87620D02*
X162700Y72380D01*
X137300Y72380D02*
X137300Y87620D01*
D23*
X147300Y317300D03*
X172700Y317300D03*
X172700Y342700D03*
X247300Y317300D03*
X272700Y317300D03*
X272700Y342700D03*
D13*
X358500Y400000D03*
X341500Y400000D03*
X358500Y370000D03*
X341500Y370000D03*
D24*
X200800Y242800D03*
X183800Y242800D03*
X577900Y345800D03*
X594900Y345800D03*
D25*
X616100Y403100D03*
X616100Y433100D03*
X616100Y448100D03*
D26*
X624100Y460100D03*
X645100Y460100D03*
X645100Y391100D03*
X624100Y391100D03*
D27*
X662600Y307500D03*
X649900Y307500D03*
X637200Y307500D03*
X624500Y307500D03*
X611800Y307500D03*
X599100Y307500D03*
X586400Y307500D03*
X573700Y307500D03*
X561000Y307500D03*
X548300Y307500D03*
X535600Y307500D03*
X522900Y307500D03*
X510200Y307500D03*
X497500Y307500D03*
D28*
X485000Y277150D03*
X485000Y264450D03*
X485000Y251750D03*
X485000Y239050D03*
X485000Y226350D03*
X485000Y213650D03*
X485000Y200950D03*
X485000Y188250D03*
X485000Y175550D03*
X485000Y162850D03*
D27*
X497500Y132500D03*
X510200Y132500D03*
X522900Y132500D03*
X535600Y132500D03*
X548300Y132500D03*
X561000Y132500D03*
X573700Y132500D03*
X586400Y132500D03*
X599100Y132500D03*
X611800Y132500D03*
X624500Y132500D03*
X637200Y132500D03*
X649900Y132500D03*
X662600Y132500D03*
D29*
X599400Y249000D03*
X599400Y235000D03*
X599400Y221000D03*
X585400Y249000D03*
X585400Y235000D03*
X585400Y221000D03*
X571400Y249000D03*
X571400Y235000D03*
X571400Y221000D03*
D30*
X599400Y242000D03*
X599400Y228000D03*
X592400Y249000D03*
X592400Y235000D03*
X592400Y221000D03*
X585400Y242000D03*
X585400Y228000D03*
X578400Y249000D03*
X578400Y235000D03*
X578400Y221000D03*
X571400Y242000D03*
X571400Y228000D03*
D31*
X274903Y156953D02*
X274903Y149047D01*
X263197Y149047D01*
X263197Y156953D01*
X274903Y156953D01*
X274903Y150372D02*
X263197Y150372D01*
X263197Y151697D02*
X274903Y151697D01*
X274903Y153022D02*
X263197Y153022D01*
X263197Y154347D02*
X274903Y154347D01*
X274903Y155672D02*
X263197Y155672D01*
X274903Y171947D02*
X274903Y179853D01*
X274903Y171947D02*
X263197Y171947D01*
X263197Y179853D01*
X274903Y179853D01*
X274903Y173272D02*
X263197Y173272D01*
X263197Y174597D02*
X274903Y174597D01*
X274903Y175922D02*
X263197Y175922D01*
X263197Y177247D02*
X274903Y177247D01*
X274903Y178572D02*
X263197Y178572D01*
X274903Y194847D02*
X274903Y202753D01*
X274903Y194847D02*
X263197Y194847D01*
X263197Y202753D01*
X274903Y202753D01*
X274903Y196172D02*
X263197Y196172D01*
X263197Y197497D02*
X274903Y197497D01*
X274903Y198822D02*
X263197Y198822D01*
X263197Y200147D02*
X274903Y200147D01*
X274903Y201472D02*
X263197Y201472D01*
D32*
X207718Y191118D02*
X207718Y160682D01*
X196582Y160682D01*
X196582Y191118D01*
X207718Y191118D01*
X207718Y162549D02*
X196582Y162549D01*
X196582Y164416D02*
X207718Y164416D01*
X207718Y166283D02*
X196582Y166283D01*
X196582Y168150D02*
X207718Y168150D01*
X207718Y170017D02*
X196582Y170017D01*
X196582Y171884D02*
X207718Y171884D01*
X207718Y173751D02*
X196582Y173751D01*
X196582Y175618D02*
X207718Y175618D01*
X207718Y177485D02*
X196582Y177485D01*
X196582Y179352D02*
X207718Y179352D01*
X207718Y181219D02*
X196582Y181219D01*
X196582Y183086D02*
X207718Y183086D01*
X207718Y184953D02*
X196582Y184953D01*
X196582Y186820D02*
X207718Y186820D01*
X207718Y188687D02*
X196582Y188687D01*
X196582Y190554D02*
X207718Y190554D01*
D33*
X111796Y216796D02*
X46672Y216796D01*
X111796Y216796D02*
X121000Y226000D01*
D34*
X121000Y226000D03*
X120000Y253000D03*
D33*
X125046Y258046D01*
X130700Y258046D01*
X143954Y271300D01*
X157400Y271300D01*
X130700Y258046D02*
X118446Y270300D01*
X104900Y270300D01*
X157400Y271300D02*
X157400Y307200D01*
X147300Y317300D01*
X157400Y271300D02*
X203400Y317300D01*
X247300Y317300D01*
X247000Y259000D02*
X231300Y243300D01*
X247000Y259000D02*
X247000Y262000D01*
D34*
X247000Y262000D03*
X324000Y268000D03*
D33*
X324000Y243654D01*
X324354Y243300D01*
X324354Y227654D01*
X315500Y218800D01*
X315500Y195700D01*
X323400Y187800D01*
X323400Y173454D01*
X335554Y161300D01*
X335554Y144554D01*
X335000Y144000D01*
D34*
X335000Y144000D03*
X289000Y122000D03*
D33*
X269050Y141950D01*
X269050Y153000D01*
X289000Y122000D02*
X267300Y100300D01*
X267300Y80000D01*
X431800Y74500D02*
X431800Y22860D01*
X431800Y74500D02*
X437300Y80000D01*
X492729Y98796D02*
X495525Y96000D01*
X538600Y96000D01*
X456096Y98796D02*
X437300Y80000D01*
X456096Y98796D02*
X492729Y98796D01*
X538600Y96000D02*
X554600Y80000D01*
X574600Y60000D01*
X621000Y60000D01*
X631871Y70871D01*
X631871Y88141D01*
X662600Y118870D02*
X662600Y132500D01*
X662600Y118870D02*
X631871Y88141D01*
X662600Y132500D02*
X662600Y307500D01*
X532700Y353590D02*
X519490Y366800D01*
X532700Y353590D02*
X532700Y345800D01*
X514900Y328000D01*
X488000Y328000D01*
X485000Y325000D01*
X485000Y277150D01*
X611600Y367800D02*
X611600Y398600D01*
X616100Y403100D01*
X609000Y410200D01*
X609000Y419000D01*
X606000Y422000D01*
X585000Y422000D01*
D34*
X585000Y422000D03*
D33*
X291700Y483000D02*
X266700Y508000D01*
X291700Y483000D02*
X311000Y483000D01*
D34*
X405000Y476134D03*
D33*
X400000Y483000D02*
X311000Y483000D01*
X405000Y478000D02*
X405000Y476134D01*
X405000Y478000D02*
X400000Y483000D01*
X405400Y450000D02*
X444000Y450000D01*
X454000Y440000D01*
X473000Y440000D01*
D34*
X473000Y440000D03*
X474000Y406000D03*
D33*
X497000Y406000D01*
X498000Y405000D01*
X500400Y405000D01*
X545400Y450000D01*
X456100Y270100D02*
X431000Y270100D01*
X456100Y270100D02*
X457000Y271000D01*
D34*
X457134Y271000D03*
D33*
X457000Y271000D01*
D34*
X499000Y273000D03*
D33*
X494850Y277150D01*
X485000Y277150D01*
X657956Y312144D02*
X662600Y307500D01*
X611600Y363930D02*
X611600Y367800D01*
X657956Y317574D02*
X657956Y312144D01*
X657956Y317574D02*
X611600Y363930D01*
D34*
X559000Y245000D03*
D33*
X563000Y249000D02*
X568365Y249000D01*
X595339Y256096D02*
X597435Y254000D01*
X600000Y254000D01*
X575461Y256096D02*
X568365Y249000D01*
X575461Y256096D02*
X595339Y256096D01*
X606496Y239061D02*
X604000Y236565D01*
X604000Y233435D01*
X606496Y247504D02*
X600000Y254000D01*
X606496Y247504D02*
X606496Y239061D01*
X604000Y233435D02*
X606496Y230939D01*
X606496Y225061D01*
X605000Y223565D01*
X605000Y220000D01*
X599400Y235000D02*
X585400Y235000D01*
X571400Y235000D01*
X585400Y221000D02*
X599400Y221000D01*
X585400Y221000D02*
X571400Y221000D01*
X585400Y249000D02*
X599400Y249000D01*
X585400Y249000D02*
X571400Y249000D01*
X568365Y249000D01*
X563000Y249000D02*
X559000Y245000D01*
X660700Y0D02*
X0Y0D01*
X0Y533785D01*
X645052Y533785D01*
X660700Y518137D01*
X660700Y403860D01*
X685500Y378460D01*
X685500Y50800D01*
X660700Y25400D01*
X660700Y0D01*
X545400Y410978D02*
X545400Y450000D01*
X545400Y410978D02*
X551338Y405040D01*
X551338Y398648D01*
X519490Y366800D01*
D34*
X311000Y483000D03*
X100000Y460000D03*
X209000Y483000D03*
X444000Y484000D03*
X612000Y477000D03*
X512000Y401000D03*
X544000Y402000D03*
X505000Y338000D03*
X312000Y449000D03*
X312000Y414000D03*
X321000Y309000D03*
X645000Y260000D03*
X645000Y217000D03*
X545000Y229000D03*
X545000Y178000D03*
X590000Y178000D03*
X630000Y178000D03*
X523000Y108000D03*
X523000Y80000D03*
X366000Y87000D03*
X428000Y149000D03*
X463000Y149000D03*
X237000Y34000D03*
X200000Y34000D03*
X205000Y79000D03*
X225000Y122000D03*
X175000Y123000D03*
X174000Y177000D03*
X51000Y146000D03*
X102000Y146000D03*
X50000Y89000D03*
X101000Y91000D03*
X263000Y242000D03*
X46000Y409000D03*
X100000Y410000D03*
X45000Y358000D03*
X101000Y358000D03*
X45000Y310000D03*
X102000Y310000D03*
X46000Y460000D03*
X209000Y448000D03*
X209000Y411000D03*
D35*
X247300Y425300D02*
X247300Y450000D01*
X247300Y425300D02*
X238921Y416921D01*
X238921Y390000D01*
X147300Y421300D02*
X147300Y450000D01*
X147300Y421300D02*
X138921Y412921D01*
X138921Y390000D01*
D36*
X59204Y242796D02*
X46672Y242796D01*
X59204Y242796D02*
X60000Y242000D01*
D35*
X104600Y242000D01*
X104900Y242300D01*
X130446Y242300D01*
X130700Y242554D01*
X156654Y242554D01*
X157400Y243300D01*
X183300Y243300D01*
X183800Y242800D01*
X183800Y275800D01*
X184000Y276000D01*
D34*
X184000Y276000D03*
X117000Y362000D03*
D35*
X117000Y386000D01*
X121000Y390000D01*
X138921Y390000D01*
D34*
X239000Y374000D03*
D35*
X238921Y374079D01*
X238921Y390000D01*
X188000Y280000D02*
X184000Y276000D01*
X188000Y280000D02*
X277000Y280000D01*
X294846Y262154D01*
X294846Y243300D01*
X298500Y239646D01*
X298500Y218800D01*
X278500Y198800D01*
X269050Y198800D01*
X183800Y227800D02*
X183800Y242800D01*
X183800Y227800D02*
X137300Y181300D01*
X137300Y80000D01*
D34*
X357000Y255000D03*
D33*
X357000Y286000D01*
D34*
X357000Y286000D03*
X394000Y345000D03*
D33*
X426000Y345000D01*
D34*
X426000Y345000D03*
D33*
X520000Y450000D02*
X520000Y463000D01*
X532000Y475000D01*
X574000Y475000D01*
X584200Y485200D01*
X584200Y508000D01*
X354600Y457600D02*
X354600Y450000D01*
X508000Y490000D02*
X508000Y510540D01*
X508000Y490000D02*
X486796Y468796D01*
X365796Y468796D02*
X354600Y457600D01*
X365796Y468796D02*
X486796Y468796D01*
D34*
X454011Y371989D03*
D33*
X463000Y363000D01*
D34*
X463626Y313626D03*
D33*
X463000Y314251D02*
X463000Y363000D01*
X463000Y314251D02*
X463626Y313626D01*
X488100Y80000D02*
X533400Y34700D01*
X533400Y25400D01*
D37*
X649900Y294900D02*
X649900Y307500D01*
X649900Y294900D02*
X646000Y291000D01*
D34*
X646000Y291000D03*
D37*
X450700Y244700D02*
X431000Y244700D01*
X594900Y345800D02*
X595100Y346000D01*
X594900Y345800D02*
X594900Y367500D01*
X594600Y367800D01*
X594600Y395600D01*
X595000Y396000D01*
D34*
X595000Y396000D03*
X603000Y448000D03*
D37*
X603100Y448100D01*
X616100Y448100D01*
D34*
X474000Y290000D03*
D37*
X553510Y367800D02*
X594600Y367800D01*
X553510Y367800D02*
X552510Y366800D01*
X281900Y175900D02*
X269050Y175900D01*
X281900Y175900D02*
X294000Y188000D01*
X306200Y188000D01*
X306400Y187800D01*
X306400Y161654D01*
X306046Y161300D01*
X306046Y139954D01*
X314000Y132000D01*
X369000Y132000D01*
X381000Y144000D01*
X381000Y304000D01*
X401000Y324000D01*
X440000Y324000D02*
X474000Y290000D01*
X440000Y324000D02*
X401000Y324000D01*
X466504Y282504D02*
X474000Y290000D01*
X466504Y282504D02*
X466504Y260504D01*
X450700Y244700D01*
X649900Y307500D02*
X649900Y314703D01*
X618603Y346000D01*
X595100Y346000D01*
D33*
X215800Y242800D02*
X200800Y242800D01*
X215800Y242800D02*
X216300Y243300D01*
D34*
X571000Y395000D03*
X570000Y288000D03*
D33*
X570000Y274000D01*
X561000Y265000D01*
X528000Y265000D01*
X521000Y258000D01*
X521000Y157000D01*
X514000Y150000D01*
X503000Y150000D01*
X497500Y144500D01*
X497500Y132500D01*
X585723Y433100D02*
X616100Y433100D01*
X585723Y433100D02*
X571000Y418378D01*
X571000Y395000D01*
X577900Y345800D02*
X549700Y345800D01*
X577900Y345800D02*
X577900Y336100D01*
X584000Y330000D01*
X619029Y330000D01*
X637200Y311829D01*
X637200Y307500D01*
X624500Y132500D02*
X624500Y108500D01*
X605000Y89000D01*
X605000Y80400D01*
X605400Y80000D01*
X611800Y111800D02*
X611800Y132500D01*
X611800Y111800D02*
X599000Y99000D01*
X590000Y99000D01*
X580000Y89000D01*
X580000Y80000D01*
D37*
X181079Y441621D02*
X172700Y450000D01*
X181079Y441621D02*
X181079Y390000D01*
X181079Y351079D01*
X172700Y342700D01*
D33*
X340500Y399000D02*
X341500Y400000D01*
X340500Y399000D02*
X329000Y399000D01*
X316000Y386000D01*
X316000Y385000D01*
D34*
X316000Y385000D03*
X381000Y400000D03*
D33*
X358500Y400000D01*
D34*
X381000Y370000D03*
D33*
X358500Y370000D01*
D35*
X411900Y80000D02*
X381000Y49100D01*
X381000Y22860D01*
X241900Y64100D02*
X241900Y80000D01*
X241900Y64100D02*
X256900Y49100D01*
X381000Y49100D01*
X494600Y434600D02*
X494600Y450000D01*
X494600Y434600D02*
X482000Y422000D01*
X441000Y422000D01*
X390000Y422000D01*
X380000Y432000D01*
X380000Y450000D01*
X411900Y131100D02*
X411900Y80000D01*
X411900Y131100D02*
X398000Y145000D01*
X398000Y297000D01*
X407000Y306000D01*
X410000Y306000D01*
D34*
X410000Y306000D03*
X439000Y386000D03*
D35*
X439000Y420000D01*
X441000Y422000D01*
D37*
X281079Y441621D02*
X272700Y450000D01*
X281079Y441621D02*
X281079Y390000D01*
X281079Y351079D01*
X272700Y342700D01*
D33*
X319000Y370000D02*
X341500Y370000D01*
D34*
X319000Y370000D03*
D33*
X431000Y219300D02*
X465700Y219300D01*
X466000Y219000D01*
D34*
X466000Y219000D03*
X510000Y228000D03*
D33*
X510000Y307300D01*
X510200Y307500D01*
X431000Y193900D02*
X431000Y179000D01*
X434450Y175550D01*
X485000Y175550D01*
M02*
