M48
;GenerationSoftware,Autodesk,EAGLE,9.7.0*%
;CreationDate,2022-06-08T16:36:15Z*%
FMAT,2
ICI,OFF
METRIC,TZ,000.000
T8C0.200
T7C0.350
T6C0.813
T5C0.850
T4C0.900
T3C1.016
T2C1.200
%
G90
M71
T2
X1992Y19480
X1992Y26480
T3
X29270Y8000
X33020Y2286
X31810Y8000
X43730Y8000
X41190Y8000
X46270Y8000
X48810Y8000
X27270Y45000
X24730Y45000
X58000Y8000
X60540Y8000
X55460Y8000
X17270Y45000
X14730Y45000
X43100Y21930
X43100Y19390
X43100Y24470
X16270Y8000
X13730Y8000
X43100Y27010
X41910Y50800
X35560Y2540
X38100Y2286
X40640Y2540
X43180Y2286
X45720Y2540
X50800Y2286
X53340Y2540
X55880Y2286
X58420Y2540
X60960Y2286
X63500Y2540
X63500Y50800
X60960Y51054
X58420Y50800
X55880Y51054
X53340Y50800
X50800Y51054
X48260Y50800
X45720Y51054
X39370Y51054
X36830Y50800
X34290Y51054
X31750Y50800
X29210Y51054
X26670Y50800
X24130Y51054
X21590Y50800
X19050Y50800
X30480Y2540
X27940Y2286
X52000Y45000
X49460Y45000
X54540Y45000
X38000Y45000
X35460Y45000
X40540Y45000
X26730Y8000
X24190Y8000
T4
X4692Y25480
X4692Y20480
T5
X63460Y44060
X63460Y41060
T6
X27270Y34270
X14730Y31730
X17270Y31730
X17270Y34270
X24730Y31730
X27270Y31730
T7
X45713Y27100
X49900Y27300
X55900Y24500
X31100Y48300
X10000Y46000
X20900Y48300
X44400Y48400
X61200Y47700
X51200Y40100
X54400Y40200
X31200Y44900
X31200Y41400
X32100Y30900
X64500Y26000
X64500Y21700
X54500Y22900
X54500Y17800
X59000Y17800
X63000Y17800
X52300Y10800
X52300Y8000
X36600Y8700
X42800Y14900
X46300Y14900
X23700Y3400
X20000Y3400
X20500Y7900
X22500Y12200
X17500Y12300
X17400Y17700
X5100Y14600
X10200Y14600
X5000Y8900
X10100Y9100
X26300Y24200
X4600Y40900
X10000Y41000
X4500Y35800
X10100Y35800
X4500Y31000
X10200Y31000
X4600Y46000
X20900Y44800
X20900Y41100
X18400Y27600
X11700Y36200
X23900Y37400
X35700Y25500
X35700Y28600
X42600Y34500
X45401Y37199
X46363Y31363
X64600Y29100
X59500Y39600
X60300Y44800
X47400Y29000
X57100Y39500
X57000Y28800
X31600Y38500
X38100Y40000
X38100Y37000
X41000Y30600
X43900Y38600
X31900Y37000
X46600Y21900
X12100Y22600
X12000Y25300
X24700Y26200
X32400Y26800
X50500Y33800
X33500Y14400
X39400Y34500
X28900Y12200
X58500Y42200
X40500Y47613
X47300Y44000
X47400Y40600
X51000Y22800
T8
X59940Y24200
X59940Y22800
X59240Y24900
X59240Y23500
X59240Y22100
X58540Y24200
X58540Y22800
X57840Y24900
X57840Y23500
X57840Y22100
X57140Y24200
X57140Y22800
M30